<?xml version="1.0" encoding="utf-8"?>
<!-- Generator: Adobe Illustrator 27.4.1, SVG Export Plug-In . SVG Version: 6.00 Build 0)  -->
<svg version="1.1" id="Capa_1" xmlns="http://www.w3.org/2000/svg" xmlns:xlink="http://www.w3.org/1999/xlink" x="0px" y="0px"
	 viewBox="0 0 210 56.6" style="enable-background:new 0 0 210 56.6;" xml:space="preserve">
<style type="text/css">
	.st0{fill-rule:evenodd;clip-rule:evenodd;fill:#EE8404;}
	.st1{fill:#EE8404;}
</style>
<g>
	<g>
		<g>
			<g>
				<g>
					<g>
						<g>
							<g>
								<polygon class="st0" points="32.5,9.57 36.33,9.57 41.33,18.79 41.33,9.57 45.2,9.57 45.2,26.24 41.33,26.24 36.36,17.09 
									36.36,26.24 32.5,26.24 								"/>
								<path class="st0" d="M17.4,2.62h11.71c1.17,0.44,1.31,4.47-0.04,4.86h-7.18c-1.52,0.12-1.78,3.75-0.37,4.61h5.71
									c1.83,0.14,2.95,0.95,3.29,2.5v8.54c-0.54,1.71-1.72,2.74-3.52,3.12H15.66c-1.57-0.76-1.48-4.38-0.01-4.86h7.35
									c0.62,0.01,1.11-0.36,1.33-1.06v-2.08c-0.15-0.96-0.55-1.62-1.49-1.64h-4.8c-2.06-0.36-3.42-1.53-3.75-3.85v-7.2
									C14.73,4.3,15.57,3.19,17.4,2.62"/>
								<polygon class="st0" points="62.03,9.57 72.99,9.57 72.99,13.13 66.13,13.13 66.13,15.78 72.49,15.78 72.49,19.18 
									66.13,19.18 66.13,22.46 73.19,22.46 73.19,26.24 62.03,26.24 								"/>
								<polygon class="st0" points="46.33,9.57 60.68,9.57 60.68,13.11 55.64,13.11 55.58,26.24 51.49,26.24 51.45,13.11 
									46.33,13.11 								"/>
								<polygon class="st0" points="62.76,5.11 62.76,4.02 78.41,4.02 78.41,31.62 61.58,31.62 58.44,28.94 55.39,31.62 
									43.63,31.62 43.63,30.61 55.39,30.61 58.44,27.84 61.58,30.61 77.44,30.61 77.44,5.11 								"/>
								<path class="st0" d="M87.03,4.11l-0.43,1.74h-0.13c-0.03-0.27-0.08-0.49-0.15-0.66c-0.11-0.24-0.25-0.42-0.43-0.55
									c-0.18-0.13-0.37-0.19-0.57-0.19c-0.2,0-0.37,0.07-0.52,0.23c-0.15,0.15-0.22,0.32-0.22,0.51c0,0.19,0.05,0.37,0.16,0.55
									c0.1,0.18,0.35,0.45,0.73,0.82c0.31,0.29,0.52,0.54,0.62,0.75c0.11,0.21,0.16,0.43,0.16,0.68c0,0.27-0.07,0.53-0.22,0.76
									c-0.15,0.23-0.36,0.41-0.64,0.54c-0.28,0.13-0.6,0.19-0.95,0.19c-0.22,0-0.49-0.03-0.83-0.1c-0.33-0.06-0.55-0.1-0.66-0.1
									c-0.09,0-0.16,0.01-0.23,0.04c-0.07,0.03-0.15,0.08-0.25,0.15H82.3l0.46-1.95h0.15c0.03,0.34,0.1,0.63,0.21,0.87
									c0.11,0.24,0.26,0.43,0.46,0.56c0.2,0.13,0.42,0.2,0.68,0.2c0.25,0,0.46-0.08,0.63-0.24c0.17-0.17,0.25-0.36,0.25-0.58
									c0-0.19-0.05-0.37-0.15-0.54c-0.1-0.17-0.32-0.43-0.66-0.76C84,6.69,83.76,6.39,83.63,6.13c-0.1-0.19-0.14-0.4-0.14-0.62
									c0-0.38,0.15-0.71,0.46-0.99c0.3-0.28,0.7-0.42,1.19-0.42c0.22,0,0.51,0.05,0.88,0.15c0.21,0.06,0.36,0.09,0.45,0.09
									c0.07,0,0.14-0.02,0.2-0.05c0.06-0.03,0.13-0.09,0.21-0.19H87.03z M88.86,4.11c0.16,0,0.29,0.05,0.4,0.16
									c0.11,0.11,0.16,0.24,0.16,0.39c0,0.15-0.05,0.29-0.17,0.39c-0.11,0.11-0.24,0.16-0.4,0.16c-0.15,0-0.29-0.05-0.4-0.16
									c-0.11-0.11-0.16-0.24-0.16-0.39c0-0.15,0.05-0.28,0.16-0.39C88.57,4.16,88.71,4.11,88.86,4.11 M89.17,5.85l-0.84,2.66
									c-0.05,0.15-0.07,0.25-0.07,0.3c0,0.03,0.01,0.06,0.03,0.08c0.02,0.02,0.05,0.04,0.07,0.04c0.04,0,0.08-0.02,0.13-0.06
									c0.11-0.1,0.25-0.27,0.41-0.53l0.13,0.08c-0.39,0.69-0.8,1.03-1.23,1.03c-0.17,0-0.3-0.05-0.4-0.14
									c-0.1-0.09-0.15-0.21-0.15-0.35c0-0.09,0.02-0.21,0.07-0.35l0.58-1.8c0.06-0.17,0.09-0.3,0.09-0.39
									c0-0.06-0.03-0.11-0.08-0.15c-0.05-0.04-0.12-0.06-0.21-0.06c-0.04,0-0.09,0-0.15,0l0.05-0.16l1.34-0.21H89.17z M91.67,5.85
									l-0.49,1.62c0.34-0.47,0.59-0.8,0.76-0.97c0.25-0.25,0.46-0.42,0.63-0.51c0.18-0.09,0.35-0.14,0.5-0.14
									c0.14,0,0.26,0.05,0.36,0.16c0.1,0.11,0.15,0.25,0.15,0.42c0,0.14-0.03,0.31-0.1,0.51l-0.52,1.59
									c-0.04,0.14-0.07,0.23-0.07,0.27c0,0.03,0.01,0.05,0.03,0.07c0.02,0.02,0.04,0.03,0.06,0.03c0.02,0,0.05-0.01,0.08-0.03
									c0.09-0.07,0.18-0.18,0.27-0.31c0.02-0.04,0.06-0.09,0.11-0.16l0.15,0.08c-0.38,0.61-0.78,0.92-1.19,0.92
									c-0.16,0-0.28-0.04-0.37-0.12c-0.09-0.08-0.14-0.18-0.14-0.3c0-0.11,0.03-0.26,0.1-0.47l0.52-1.62
									c0.04-0.11,0.05-0.18,0.05-0.24c0-0.03-0.01-0.05-0.04-0.07c-0.02-0.02-0.05-0.03-0.09-0.03c-0.1,0-0.23,0.07-0.38,0.2
									c-0.38,0.33-0.75,0.83-1.11,1.49l-0.33,1.12h-0.98l0.73-2.42c0.07-0.24,0.11-0.41,0.12-0.51c0-0.04-0.01-0.08-0.03-0.11
									c-0.02-0.03-0.06-0.05-0.11-0.07c-0.05-0.02-0.15-0.02-0.29-0.02l0.03-0.15l1.33-0.22H91.67z M98.48,4.11l-1.29,4.22
									c-0.08,0.26-0.12,0.42-0.12,0.48c0,0.03,0.01,0.05,0.03,0.07c0.02,0.02,0.04,0.03,0.06,0.03c0.04,0,0.09-0.02,0.15-0.07
									c0.09-0.07,0.21-0.2,0.34-0.4l0.14,0.07c-0.36,0.62-0.76,0.93-1.19,0.93c-0.15,0-0.27-0.04-0.35-0.12
									c-0.08-0.08-0.12-0.18-0.12-0.3c0-0.12,0.03-0.29,0.1-0.5l0.12-0.39c-0.32,0.56-0.6,0.92-0.83,1.11
									c-0.18,0.14-0.35,0.2-0.52,0.2c-0.19,0-0.35-0.08-0.48-0.23c-0.13-0.15-0.2-0.38-0.2-0.67c0-0.38,0.08-0.74,0.25-1.11
									c0.17-0.37,0.36-0.67,0.59-0.91c0.22-0.24,0.43-0.42,0.64-0.52c0.2-0.1,0.4-0.16,0.59-0.16c0.1,0,0.19,0.02,0.27,0.06
									c0.08,0.04,0.17,0.12,0.27,0.23l0.3-0.94c0.08-0.24,0.12-0.41,0.12-0.52c0-0.06-0.03-0.11-0.08-0.16
									c-0.05-0.04-0.12-0.07-0.21-0.07c-0.04,0-0.09,0-0.15,0.01l0.03-0.15l1.31-0.22H98.48z M96.76,6.5
									c0-0.15-0.03-0.27-0.09-0.34c-0.06-0.07-0.14-0.11-0.22-0.11c-0.08,0-0.17,0.04-0.27,0.12C96,6.35,95.81,6.67,95.61,7.16
									c-0.2,0.49-0.3,0.9-0.3,1.23c0,0.12,0.02,0.21,0.07,0.27c0.04,0.06,0.09,0.09,0.15,0.09c0.09,0,0.18-0.04,0.27-0.12
									c0.22-0.19,0.44-0.52,0.65-0.99C96.66,7.17,96.76,6.79,96.76,6.5 M100.11,4.11c0.16,0,0.29,0.05,0.4,0.16
									c0.11,0.11,0.16,0.24,0.16,0.39c0,0.15-0.05,0.29-0.16,0.39c-0.11,0.11-0.24,0.16-0.4,0.16c-0.15,0-0.29-0.05-0.4-0.16
									c-0.11-0.11-0.17-0.24-0.17-0.39c0-0.15,0.05-0.28,0.16-0.39C99.82,4.16,99.96,4.11,100.11,4.11 M100.42,5.85l-0.84,2.66
									c-0.05,0.15-0.07,0.25-0.07,0.3c0,0.03,0.01,0.06,0.03,0.08c0.02,0.02,0.05,0.04,0.07,0.04c0.04,0,0.08-0.02,0.13-0.06
									c0.11-0.1,0.25-0.27,0.4-0.53l0.13,0.08c-0.39,0.69-0.8,1.03-1.24,1.03c-0.17,0-0.3-0.05-0.4-0.14
									c-0.1-0.09-0.15-0.21-0.15-0.35c0-0.09,0.02-0.21,0.07-0.35l0.58-1.8c0.06-0.17,0.08-0.3,0.08-0.39
									c0-0.06-0.03-0.11-0.08-0.15c-0.05-0.04-0.12-0.06-0.21-0.06c-0.04,0-0.09,0-0.15,0l0.05-0.16l1.34-0.21H100.42z
									 M103.72,8.45l0.12,0.1c-0.25,0.29-0.49,0.5-0.73,0.63c-0.32,0.18-0.65,0.27-0.99,0.27c-0.23,0-0.43-0.05-0.61-0.15
									c-0.18-0.1-0.31-0.23-0.39-0.41c-0.08-0.17-0.13-0.35-0.13-0.54c0-0.41,0.11-0.82,0.34-1.22c0.23-0.4,0.53-0.72,0.9-0.95
									c0.37-0.23,0.74-0.35,1.1-0.35c0.29,0,0.5,0.06,0.65,0.19c0.14,0.12,0.22,0.28,0.22,0.47c0,0.17-0.05,0.31-0.16,0.43
									c-0.11,0.12-0.23,0.18-0.37,0.18c-0.12,0-0.22-0.04-0.29-0.11c-0.08-0.08-0.12-0.17-0.12-0.27c0-0.14,0.07-0.25,0.21-0.36
									c0.09-0.07,0.14-0.13,0.14-0.18c0-0.04-0.02-0.08-0.06-0.11c-0.05-0.04-0.12-0.06-0.2-0.06c-0.21,0-0.41,0.08-0.6,0.26
									c-0.25,0.23-0.44,0.52-0.57,0.86c-0.13,0.35-0.2,0.68-0.2,0.99c0,0.25,0.07,0.45,0.2,0.59c0.14,0.15,0.29,0.22,0.48,0.22
									c0.16,0,0.34-0.04,0.53-0.12C103.37,8.74,103.55,8.61,103.72,8.45 M108.29,5.9l-0.75,2.51l-0.08,0.31
									c-0.01,0.04-0.01,0.07-0.01,0.08c0,0.03,0.01,0.06,0.03,0.08c0.02,0.02,0.04,0.03,0.06,0.03c0.05,0,0.12-0.04,0.22-0.12
									c0.04-0.03,0.13-0.15,0.27-0.35l0.13,0.07c-0.18,0.33-0.37,0.56-0.58,0.71c-0.2,0.15-0.42,0.23-0.66,0.23
									c-0.15,0-0.26-0.04-0.33-0.11c-0.08-0.07-0.11-0.17-0.11-0.28c0-0.1,0.04-0.28,0.13-0.55l0.09-0.31
									c-0.3,0.5-0.58,0.86-0.85,1.06c-0.16,0.12-0.33,0.18-0.5,0.18c-0.23,0-0.4-0.1-0.51-0.29c-0.1-0.19-0.16-0.4-0.16-0.64
									c0-0.35,0.11-0.76,0.33-1.22c0.22-0.46,0.51-0.83,0.87-1.11c0.29-0.23,0.57-0.35,0.83-0.35c0.14,0,0.26,0.04,0.35,0.12
									c0.09,0.08,0.15,0.23,0.19,0.45l0.14-0.46L108.29,5.9z M107.06,6.62c0-0.2-0.03-0.35-0.1-0.44
									c-0.05-0.06-0.11-0.09-0.19-0.09c-0.08,0-0.16,0.04-0.25,0.11c-0.17,0.15-0.36,0.47-0.56,0.95c-0.2,0.48-0.3,0.89-0.3,1.23
									c0,0.13,0.02,0.23,0.07,0.29c0.04,0.06,0.09,0.09,0.15,0.09c0.12,0,0.23-0.07,0.35-0.2c0.17-0.19,0.32-0.41,0.46-0.68
									C106.94,7.41,107.06,6.99,107.06,6.62 M111.02,4.93l-0.32,1.03h0.44L111,6.39h-0.43l-0.69,2.22
									c-0.04,0.14-0.07,0.24-0.07,0.31c0,0.02,0.01,0.04,0.04,0.06C109.87,9,109.89,9,109.92,9c0.04,0,0.09-0.02,0.13-0.05
									c0.12-0.09,0.25-0.24,0.41-0.46l0.13,0.08c-0.18,0.3-0.37,0.53-0.58,0.67c-0.21,0.14-0.42,0.21-0.63,0.21
									c-0.17,0-0.31-0.04-0.4-0.13c-0.09-0.09-0.14-0.2-0.14-0.33c0-0.15,0.03-0.33,0.11-0.56l0.65-2.04h-0.49l0.07-0.28
									c0.31-0.12,0.58-0.26,0.81-0.42c0.23-0.16,0.5-0.41,0.83-0.77H111.02z M113.72,5.85c0.2,0,0.39,0.05,0.57,0.14
									c0.18,0.09,0.31,0.22,0.4,0.38c0.09,0.16,0.14,0.34,0.14,0.54c0,0.41-0.12,0.82-0.35,1.22c-0.23,0.41-0.53,0.73-0.91,0.96
									c-0.38,0.24-0.76,0.35-1.14,0.35c-0.35,0-0.61-0.1-0.8-0.31c-0.19-0.2-0.29-0.45-0.29-0.75c0-0.35,0.07-0.68,0.21-0.98
									c0.14-0.31,0.32-0.57,0.54-0.8c0.22-0.23,0.47-0.41,0.75-0.56C113.13,5.92,113.42,5.85,113.72,5.85 M113.57,6.05
									c-0.13,0-0.25,0.04-0.34,0.12c-0.18,0.16-0.38,0.53-0.6,1.11c-0.22,0.58-0.34,1.11-0.34,1.57c0,0.12,0.04,0.21,0.11,0.29
									c0.07,0.08,0.16,0.11,0.25,0.11c0.1,0,0.19-0.03,0.26-0.09c0.11-0.09,0.25-0.29,0.41-0.61c0.16-0.32,0.3-0.66,0.4-1.04
									c0.1-0.38,0.16-0.73,0.16-1.05c0-0.13-0.03-0.23-0.1-0.31C113.72,6.08,113.65,6.05,113.57,6.05 M85.23,11.44l1.61,3.43
									l0.72-2.5c0.04-0.14,0.06-0.26,0.06-0.36c0-0.13-0.04-0.23-0.12-0.3c-0.08-0.08-0.22-0.12-0.41-0.13l0.04-0.13h1.63
									l-0.04,0.13c-0.21,0.01-0.38,0.07-0.52,0.17c-0.14,0.1-0.25,0.31-0.35,0.63l-1.23,4.25h-0.13l-2.09-4.36l-0.98,3.4
									c-0.03,0.12-0.05,0.23-0.05,0.32c0,0.14,0.04,0.25,0.13,0.33c0.09,0.08,0.23,0.12,0.43,0.12l-0.03,0.13h-1.69l0.04-0.13
									c0.14,0,0.25-0.01,0.31-0.04c0.11-0.04,0.21-0.12,0.31-0.23c0.1-0.11,0.19-0.28,0.25-0.5l1.08-3.73
									c-0.13-0.15-0.23-0.25-0.32-0.29c-0.09-0.04-0.21-0.07-0.38-0.07l0.03-0.13H85.23z M92.15,13.12l-0.9,0.05l-0.14,0.46
									c-0.04-0.22-0.1-0.37-0.19-0.45c-0.09-0.08-0.2-0.12-0.34-0.12c-0.26,0-0.54,0.12-0.83,0.35c-0.36,0.28-0.65,0.65-0.87,1.11
									c-0.22,0.46-0.33,0.87-0.33,1.22c0,0.24,0.05,0.45,0.16,0.64c0.11,0.19,0.27,0.28,0.51,0.28c0.18,0,0.35-0.06,0.5-0.18
									c0.27-0.21,0.56-0.56,0.85-1.06l-0.09,0.31c-0.08,0.27-0.12,0.45-0.12,0.55c0,0.11,0.04,0.2,0.11,0.28
									c0.08,0.07,0.19,0.11,0.33,0.11c0.23,0,0.46-0.07,0.66-0.22c0.2-0.15,0.4-0.39,0.58-0.71l-0.13-0.07
									c-0.14,0.2-0.23,0.31-0.27,0.35c-0.09,0.08-0.17,0.12-0.22,0.12c-0.02,0-0.04-0.01-0.06-0.03
									c-0.02-0.02-0.03-0.05-0.03-0.08c0-0.02,0-0.05,0.01-0.08l0.08-0.3L92.15,13.12z M90.92,13.84c0,0.36-0.12,0.79-0.37,1.26
									c-0.14,0.27-0.29,0.5-0.46,0.68c-0.12,0.13-0.23,0.2-0.35,0.2c-0.05,0-0.1-0.03-0.15-0.09c-0.05-0.06-0.07-0.15-0.07-0.29
									c0-0.35,0.1-0.76,0.3-1.23c0.2-0.48,0.39-0.79,0.56-0.95c0.09-0.08,0.17-0.11,0.25-0.11c0.08,0,0.14,0.03,0.19,0.09
									C90.89,13.49,90.92,13.64,90.92,13.84 M95.51,15.66l0.12,0.1c-0.25,0.29-0.49,0.5-0.73,0.64c-0.32,0.18-0.65,0.27-0.99,0.27
									c-0.23,0-0.43-0.05-0.61-0.15c-0.18-0.1-0.31-0.23-0.39-0.41c-0.08-0.18-0.13-0.36-0.13-0.54c0-0.41,0.11-0.82,0.34-1.22
									c0.23-0.4,0.53-0.72,0.9-0.95c0.37-0.23,0.74-0.35,1.1-0.35c0.29,0,0.5,0.06,0.65,0.19c0.14,0.13,0.22,0.28,0.22,0.47
									c0,0.17-0.05,0.31-0.16,0.43c-0.11,0.12-0.23,0.18-0.37,0.18c-0.12,0-0.22-0.04-0.29-0.11c-0.08-0.07-0.12-0.16-0.12-0.27
									c0-0.14,0.07-0.25,0.21-0.36c0.09-0.07,0.14-0.13,0.14-0.18c0-0.04-0.02-0.08-0.06-0.11c-0.05-0.04-0.12-0.06-0.2-0.06
									c-0.21,0-0.41,0.08-0.6,0.26c-0.25,0.23-0.44,0.52-0.57,0.86c-0.13,0.35-0.2,0.68-0.2,0.99c0,0.25,0.07,0.44,0.2,0.59
									c0.14,0.15,0.3,0.22,0.48,0.22c0.16,0,0.34-0.04,0.53-0.12C95.15,15.95,95.34,15.83,95.51,15.66 M98.08,11.33
									c0.16,0,0.29,0.05,0.4,0.16c0.11,0.11,0.16,0.24,0.16,0.39c0,0.15-0.05,0.28-0.17,0.39c-0.11,0.11-0.24,0.16-0.4,0.16
									c-0.15,0-0.29-0.05-0.4-0.16c-0.11-0.11-0.17-0.24-0.17-0.39c0-0.15,0.06-0.28,0.16-0.39
									C97.79,11.38,97.93,11.33,98.08,11.33 M98.39,13.07l-0.84,2.66c-0.05,0.15-0.07,0.25-0.07,0.3c0,0.03,0.01,0.06,0.03,0.08
									c0.02,0.02,0.05,0.04,0.07,0.04c0.04,0,0.09-0.02,0.13-0.06c0.11-0.1,0.25-0.27,0.41-0.53l0.13,0.08
									c-0.39,0.69-0.8,1.03-1.24,1.03c-0.17,0-0.3-0.04-0.4-0.14c-0.1-0.09-0.15-0.21-0.15-0.35c0-0.09,0.02-0.21,0.07-0.35
									l0.58-1.8c0.06-0.17,0.08-0.3,0.08-0.39c0-0.05-0.03-0.1-0.08-0.15c-0.05-0.04-0.12-0.06-0.21-0.06c-0.04,0-0.09,0-0.15,0
									l0.05-0.15l1.34-0.21H98.39z M101.33,13.07c0.2,0,0.39,0.05,0.57,0.14c0.18,0.09,0.31,0.22,0.4,0.38
									c0.09,0.16,0.14,0.34,0.14,0.54c0,0.41-0.12,0.82-0.35,1.22c-0.23,0.41-0.53,0.73-0.91,0.96c-0.38,0.24-0.76,0.35-1.14,0.35
									c-0.35,0-0.61-0.1-0.8-0.31c-0.19-0.2-0.28-0.45-0.28-0.75c0-0.35,0.07-0.68,0.21-0.98c0.14-0.31,0.32-0.57,0.54-0.8
									c0.22-0.23,0.47-0.41,0.75-0.56C100.73,13.14,101.02,13.07,101.33,13.07 M101.17,13.27c-0.13,0-0.25,0.04-0.34,0.12
									c-0.18,0.16-0.38,0.53-0.6,1.11c-0.22,0.58-0.34,1.11-0.34,1.58c0,0.12,0.03,0.21,0.11,0.29c0.07,0.08,0.16,0.11,0.25,0.11
									c0.1,0,0.19-0.03,0.26-0.09c0.11-0.09,0.25-0.29,0.41-0.61c0.16-0.31,0.3-0.66,0.4-1.04c0.1-0.38,0.16-0.73,0.16-1.05
									c0-0.13-0.03-0.23-0.1-0.3C101.33,13.3,101.25,13.27,101.17,13.27 M105.07,13.07l-0.49,1.62c0.34-0.48,0.59-0.8,0.76-0.97
									c0.25-0.25,0.46-0.42,0.63-0.51c0.18-0.09,0.35-0.14,0.5-0.14c0.14,0,0.26,0.05,0.36,0.16c0.1,0.11,0.15,0.24,0.15,0.42
									c0,0.14-0.03,0.31-0.1,0.5l-0.52,1.59c-0.05,0.14-0.07,0.23-0.07,0.27c0,0.03,0.01,0.05,0.03,0.07
									c0.02,0.02,0.04,0.03,0.06,0.03c0.03,0,0.05-0.01,0.08-0.03c0.09-0.07,0.18-0.18,0.27-0.31c0.02-0.04,0.06-0.09,0.11-0.16
									L107,15.7c-0.38,0.61-0.78,0.92-1.19,0.92c-0.16,0-0.28-0.04-0.37-0.12c-0.09-0.08-0.13-0.18-0.13-0.3
									c0-0.11,0.03-0.26,0.1-0.47l0.52-1.62c0.04-0.11,0.05-0.18,0.05-0.23c0-0.03-0.01-0.05-0.04-0.07
									c-0.02-0.02-0.05-0.03-0.09-0.03c-0.11,0-0.23,0.07-0.38,0.2c-0.38,0.33-0.75,0.83-1.11,1.49l-0.33,1.12h-0.98l0.73-2.42
									c0.07-0.24,0.11-0.41,0.12-0.51c0-0.04-0.01-0.08-0.03-0.11c-0.02-0.03-0.06-0.05-0.11-0.07c-0.05-0.02-0.15-0.02-0.29-0.02
									l0.03-0.15l1.34-0.23H105.07z M111.32,13.12l-0.75,2.51l-0.08,0.3c-0.01,0.04-0.01,0.07-0.01,0.08
									c0,0.03,0.01,0.06,0.03,0.08c0.02,0.02,0.04,0.03,0.06,0.03c0.05,0,0.12-0.04,0.22-0.12c0.04-0.03,0.13-0.15,0.27-0.35
									l0.13,0.07c-0.18,0.33-0.37,0.56-0.58,0.71c-0.2,0.15-0.42,0.22-0.66,0.22c-0.15,0-0.25-0.04-0.33-0.11
									c-0.07-0.07-0.11-0.17-0.11-0.28c0-0.1,0.04-0.28,0.12-0.55l0.09-0.31c-0.3,0.5-0.58,0.86-0.85,1.06
									c-0.16,0.12-0.33,0.18-0.5,0.18c-0.23,0-0.4-0.1-0.51-0.28c-0.1-0.19-0.16-0.4-0.16-0.64c0-0.35,0.11-0.76,0.33-1.22
									c0.22-0.46,0.51-0.83,0.87-1.11c0.29-0.23,0.57-0.35,0.83-0.35c0.14,0,0.26,0.04,0.34,0.12c0.09,0.08,0.15,0.23,0.19,0.45
									l0.14-0.46L111.32,13.12z M110.1,13.84c0-0.2-0.03-0.35-0.1-0.44c-0.05-0.06-0.11-0.09-0.19-0.09
									c-0.08,0-0.16,0.04-0.25,0.11c-0.17,0.16-0.36,0.47-0.56,0.95c-0.2,0.48-0.3,0.89-0.3,1.23c0,0.13,0.02,0.23,0.07,0.29
									c0.04,0.06,0.09,0.09,0.15,0.09c0.12,0,0.23-0.07,0.35-0.2c0.17-0.19,0.32-0.41,0.46-0.68
									C109.97,14.63,110.1,14.21,110.1,13.84 M114.27,11.33l-1.31,4.28c-0.08,0.25-0.11,0.41-0.11,0.47
									c0,0.03,0.01,0.06,0.03,0.08c0.02,0.02,0.05,0.03,0.07,0.03c0.05,0,0.09-0.02,0.13-0.05c0.12-0.1,0.26-0.25,0.41-0.48
									l0.15,0.06c-0.24,0.37-0.48,0.63-0.72,0.78c-0.16,0.11-0.33,0.16-0.51,0.16c-0.17,0-0.3-0.04-0.4-0.13
									c-0.1-0.09-0.15-0.19-0.15-0.32c0-0.09,0.03-0.24,0.1-0.45l1.07-3.48c0.06-0.19,0.09-0.32,0.09-0.38
									c0-0.06-0.03-0.11-0.09-0.14c-0.08-0.05-0.19-0.07-0.35-0.06l0.03-0.15l1.33-0.22H114.27z M120.47,11.33l-1.29,4.22
									c-0.08,0.26-0.12,0.43-0.12,0.48c0,0.03,0.01,0.05,0.03,0.07c0.02,0.02,0.04,0.03,0.06,0.03c0.04,0,0.09-0.02,0.15-0.06
									c0.09-0.07,0.21-0.2,0.34-0.4l0.14,0.07c-0.36,0.62-0.76,0.93-1.19,0.93c-0.15,0-0.27-0.04-0.35-0.12
									c-0.08-0.08-0.13-0.18-0.13-0.3c0-0.12,0.03-0.29,0.1-0.5l0.12-0.39c-0.32,0.56-0.59,0.92-0.83,1.11
									c-0.18,0.14-0.35,0.2-0.52,0.2c-0.19,0-0.35-0.08-0.48-0.23c-0.13-0.15-0.2-0.38-0.2-0.67c0-0.38,0.08-0.74,0.25-1.11
									c0.17-0.37,0.37-0.67,0.59-0.91c0.22-0.24,0.43-0.42,0.64-0.52c0.2-0.11,0.4-0.16,0.59-0.16c0.1,0,0.19,0.02,0.27,0.06
									c0.08,0.04,0.17,0.12,0.27,0.23l0.3-0.94c0.08-0.24,0.11-0.41,0.11-0.52c0-0.06-0.03-0.11-0.08-0.16
									c-0.05-0.04-0.12-0.07-0.21-0.07c-0.04,0-0.09,0-0.15,0.01l0.03-0.15l1.31-0.22H120.47z M118.75,13.72
									c0-0.15-0.03-0.27-0.09-0.33c-0.06-0.07-0.14-0.11-0.22-0.11c-0.08,0-0.17,0.04-0.27,0.12c-0.18,0.16-0.38,0.49-0.58,0.97
									c-0.2,0.49-0.3,0.9-0.3,1.23c0,0.12,0.02,0.21,0.07,0.27c0.04,0.06,0.09,0.09,0.15,0.09c0.09,0,0.18-0.04,0.27-0.12
									c0.22-0.19,0.44-0.52,0.65-0.98C118.64,14.39,118.75,14.01,118.75,13.72 M121.54,15.15c-0.02,0.16-0.03,0.3-0.03,0.4
									c0,0.19,0.06,0.34,0.17,0.45c0.11,0.11,0.26,0.17,0.44,0.17c0.18,0,0.36-0.04,0.54-0.11c0.18-0.08,0.39-0.21,0.63-0.4
									l0.12,0.1c-0.29,0.33-0.58,0.56-0.85,0.7c-0.28,0.14-0.58,0.21-0.92,0.21c-0.42,0-0.72-0.1-0.88-0.3
									c-0.16-0.2-0.24-0.43-0.24-0.7c0-0.41,0.12-0.82,0.36-1.24c0.24-0.41,0.57-0.74,0.99-0.99c0.42-0.25,0.84-0.37,1.26-0.37
									c0.21,0,0.37,0.05,0.48,0.15c0.11,0.1,0.16,0.23,0.16,0.38c0,0.18-0.05,0.36-0.16,0.54c-0.15,0.24-0.33,0.43-0.56,0.57
									c-0.22,0.15-0.47,0.26-0.75,0.33C122.1,15.08,121.85,15.12,121.54,15.15 M121.57,14.95c0.22-0.03,0.4-0.08,0.52-0.13
									c0.12-0.06,0.25-0.15,0.36-0.27c0.12-0.12,0.22-0.28,0.31-0.47c0.09-0.19,0.13-0.37,0.13-0.53c0-0.07-0.02-0.12-0.06-0.17
									c-0.04-0.04-0.09-0.06-0.15-0.06c-0.12,0-0.26,0.08-0.41,0.25C121.99,13.88,121.76,14.34,121.57,14.95 M83.72,18.66h4.16
									l-0.39,1.38h-0.13c0.01-0.07,0.01-0.14,0.01-0.19c0-0.26-0.08-0.46-0.24-0.61c-0.16-0.14-0.44-0.23-0.82-0.25l-1.12,3.87
									c-0.06,0.21-0.1,0.38-0.1,0.48c0,0.09,0.04,0.17,0.12,0.23c0.08,0.06,0.24,0.09,0.48,0.09l-0.03,0.13H83.1l0.05-0.13
									c0.26,0,0.45-0.05,0.57-0.15c0.12-0.1,0.23-0.32,0.33-0.66l1.11-3.87c-0.39,0.01-0.71,0.1-0.98,0.26
									c-0.26,0.16-0.5,0.42-0.72,0.79h-0.15L83.72,18.66z M89.22,20.28h-0.25l-1.28,0.26l-0.03,0.11c0.16,0,0.27,0.01,0.32,0.03
									c0.05,0.02,0.09,0.05,0.12,0.08c0.03,0.04,0.05,0.09,0.05,0.16c0,0.06-0.02,0.18-0.07,0.37l-0.73,2.5h0.93
									c0.15-0.53,0.26-0.89,0.33-1.08c0.07-0.19,0.17-0.43,0.3-0.7c0.13-0.28,0.24-0.47,0.33-0.59c0.09-0.12,0.16-0.19,0.21-0.22
									c0.03-0.02,0.05-0.02,0.08-0.02c0.02,0,0.04,0.01,0.06,0.02c0.02,0.02,0.06,0.07,0.11,0.16c0.05,0.09,0.12,0.14,0.22,0.14
									c0.09,0,0.18-0.05,0.25-0.16c0.12-0.17,0.18-0.37,0.18-0.61c0-0.14-0.03-0.25-0.1-0.33c-0.07-0.07-0.15-0.11-0.25-0.11
									c-0.15,0-0.29,0.07-0.43,0.21c-0.23,0.24-0.58,0.88-1.04,1.91L89.22,20.28z"/>
								<path class="st0" d="M94.3,20.34l-0.75,2.51l-0.08,0.31c-0.01,0.04-0.01,0.07-0.01,0.08c0,0.03,0.01,0.06,0.03,0.08
									c0.02,0.02,0.04,0.03,0.06,0.03c0.05,0,0.13-0.04,0.22-0.12c0.04-0.03,0.13-0.15,0.27-0.35l0.13,0.07
									c-0.18,0.33-0.37,0.56-0.58,0.71c-0.2,0.15-0.42,0.22-0.66,0.22c-0.14,0-0.25-0.04-0.33-0.11
									c-0.08-0.07-0.11-0.17-0.11-0.28c0-0.1,0.04-0.28,0.12-0.55l0.09-0.31c-0.3,0.5-0.58,0.86-0.85,1.06
									c-0.16,0.12-0.33,0.18-0.5,0.18c-0.23,0-0.4-0.1-0.51-0.28c-0.1-0.19-0.16-0.4-0.16-0.64c0-0.35,0.11-0.76,0.33-1.22
									c0.22-0.46,0.51-0.83,0.87-1.11c0.29-0.23,0.57-0.35,0.83-0.35c0.14,0,0.26,0.04,0.35,0.12c0.09,0.08,0.15,0.23,0.19,0.45
									l0.14-0.46L94.3,20.34z M93.08,21.06c0-0.2-0.03-0.35-0.1-0.44c-0.05-0.06-0.11-0.09-0.19-0.09c-0.08,0-0.16,0.04-0.25,0.11
									c-0.17,0.15-0.36,0.47-0.56,0.95c-0.2,0.48-0.3,0.89-0.3,1.23c0,0.13,0.02,0.23,0.07,0.29c0.04,0.06,0.09,0.09,0.15,0.09
									c0.12,0,0.23-0.07,0.35-0.2c0.17-0.19,0.32-0.41,0.46-0.68C92.96,21.84,93.08,21.43,93.08,21.06 M97.3,18.54l-0.68,2.27
									c0.19-0.21,0.35-0.36,0.48-0.43c0.13-0.07,0.27-0.11,0.42-0.11c0.29,0,0.51,0.11,0.65,0.33c0.15,0.22,0.22,0.47,0.22,0.75
									c0,0.68-0.24,1.29-0.73,1.82c-0.43,0.47-0.92,0.71-1.48,0.71c-0.41,0-0.84-0.12-1.3-0.36l1.18-3.98
									c0.06-0.19,0.09-0.32,0.1-0.4c0-0.06-0.03-0.12-0.08-0.15c-0.08-0.05-0.19-0.08-0.35-0.07l0.03-0.15l1.32-0.22H97.3z
									 M95.81,23.56c0.12,0.08,0.22,0.11,0.31,0.11c0.13,0,0.24-0.03,0.32-0.08c0.14-0.08,0.28-0.24,0.44-0.46
									c0.15-0.22,0.28-0.5,0.38-0.81c0.1-0.32,0.15-0.63,0.15-0.95c0-0.18-0.04-0.32-0.11-0.41c-0.08-0.09-0.16-0.14-0.26-0.14
									c-0.16,0-0.31,0.09-0.43,0.27c-0.08,0.11-0.17,0.36-0.27,0.73L95.81,23.56z M102.67,20.34l-0.75,2.51l-0.08,0.31
									c-0.01,0.04-0.01,0.07-0.01,0.08c0,0.03,0.01,0.06,0.03,0.08c0.02,0.02,0.04,0.03,0.06,0.03c0.05,0,0.12-0.04,0.22-0.12
									c0.04-0.03,0.13-0.15,0.27-0.35l0.13,0.07c-0.18,0.33-0.37,0.56-0.58,0.71c-0.2,0.15-0.42,0.22-0.66,0.22
									c-0.14,0-0.25-0.04-0.33-0.11c-0.08-0.07-0.11-0.17-0.11-0.28c0-0.1,0.04-0.28,0.12-0.55l0.09-0.31
									c-0.3,0.5-0.58,0.86-0.85,1.06c-0.16,0.12-0.33,0.18-0.5,0.18c-0.23,0-0.4-0.1-0.51-0.28c-0.1-0.19-0.16-0.4-0.16-0.64
									c0-0.35,0.11-0.76,0.33-1.22c0.22-0.46,0.51-0.83,0.87-1.11c0.29-0.23,0.57-0.35,0.83-0.35c0.14,0,0.26,0.04,0.35,0.12
									c0.09,0.08,0.15,0.23,0.19,0.45l0.14-0.46L102.67,20.34z M101.44,21.06c0-0.2-0.03-0.35-0.1-0.44
									c-0.05-0.06-0.11-0.09-0.19-0.09c-0.08,0-0.16,0.04-0.25,0.11c-0.17,0.15-0.36,0.47-0.56,0.95c-0.2,0.48-0.3,0.89-0.3,1.23
									c0,0.13,0.02,0.23,0.07,0.29c0.04,0.06,0.09,0.09,0.15,0.09c0.12,0,0.23-0.07,0.35-0.2c0.17-0.19,0.32-0.41,0.46-0.68
									C101.32,21.84,101.44,21.43,101.44,21.06 M104.81,18.54c0.16,0,0.29,0.05,0.4,0.16c0.11,0.11,0.16,0.24,0.16,0.4
									c0,0.15-0.05,0.28-0.16,0.39c-0.11,0.11-0.24,0.16-0.39,0.16c-0.16,0-0.29-0.05-0.4-0.16c-0.11-0.11-0.17-0.24-0.17-0.39
									c0-0.15,0.05-0.29,0.17-0.4C104.52,18.6,104.65,18.54,104.81,18.54 M105.18,20.28h-0.24l-1.34,0.21l-0.03,0.15
									c0.04,0,0.08,0,0.11,0c0.1,0,0.18,0.02,0.24,0.07c0.06,0.05,0.09,0.1,0.09,0.15c0,0.05-0.03,0.18-0.09,0.39l-0.86,2.91
									c-0.11,0.55-0.19,0.86-0.24,0.95c-0.07,0.13-0.15,0.19-0.25,0.19c-0.03,0-0.05-0.01-0.07-0.02
									c-0.02-0.01-0.02-0.03-0.02-0.05c0-0.02,0.01-0.04,0.04-0.07c0.07-0.07,0.1-0.15,0.1-0.22c0-0.08-0.03-0.14-0.09-0.2
									c-0.06-0.06-0.14-0.08-0.24-0.08c-0.13,0-0.24,0.04-0.33,0.12c-0.08,0.08-0.13,0.17-0.13,0.28c0,0.11,0.05,0.2,0.15,0.28
									c0.1,0.08,0.25,0.12,0.45,0.12c0.24,0,0.48-0.07,0.71-0.2c0.23-0.13,0.42-0.33,0.55-0.58c0.21-0.36,0.41-0.84,0.59-1.44
									L105.18,20.28z M109.29,20.34l-0.75,2.51l-0.08,0.31c-0.01,0.04-0.01,0.07-0.01,0.08c0,0.03,0.01,0.06,0.03,0.08
									c0.02,0.02,0.04,0.03,0.06,0.03c0.05,0,0.12-0.04,0.22-0.12c0.04-0.03,0.13-0.15,0.27-0.35l0.13,0.07
									c-0.18,0.33-0.37,0.56-0.58,0.71c-0.2,0.15-0.42,0.22-0.66,0.22c-0.15,0-0.25-0.04-0.33-0.11
									c-0.08-0.07-0.11-0.17-0.11-0.28c0-0.1,0.04-0.28,0.12-0.55l0.09-0.31c-0.3,0.5-0.58,0.86-0.85,1.06
									c-0.16,0.12-0.33,0.18-0.5,0.18c-0.23,0-0.4-0.1-0.51-0.28c-0.1-0.19-0.16-0.4-0.16-0.64c0-0.35,0.11-0.76,0.33-1.22
									c0.22-0.46,0.51-0.83,0.87-1.11c0.29-0.23,0.57-0.35,0.83-0.35c0.14,0,0.26,0.04,0.35,0.12c0.09,0.08,0.15,0.23,0.19,0.45
									l0.14-0.46L109.29,20.34z M108.07,21.06c0-0.2-0.03-0.35-0.1-0.44c-0.05-0.06-0.11-0.09-0.19-0.09
									c-0.08,0-0.16,0.04-0.25,0.11c-0.17,0.15-0.36,0.47-0.56,0.95c-0.2,0.48-0.3,0.89-0.3,1.23c0,0.13,0.02,0.23,0.07,0.29
									c0.04,0.06,0.09,0.09,0.15,0.09c0.12,0,0.23-0.07,0.35-0.2c0.17-0.19,0.32-0.41,0.46-0.68
									C107.95,21.84,108.07,21.43,108.07,21.06 M114.04,18.54l-1.29,4.22c-0.08,0.27-0.12,0.42-0.12,0.48
									c0,0.03,0.01,0.05,0.03,0.07c0.02,0.02,0.04,0.03,0.06,0.03c0.04,0,0.09-0.02,0.15-0.06c0.09-0.07,0.21-0.21,0.34-0.4
									l0.14,0.07c-0.36,0.62-0.76,0.93-1.19,0.93c-0.15,0-0.27-0.04-0.35-0.12c-0.08-0.08-0.12-0.18-0.12-0.3
									c0-0.12,0.03-0.29,0.1-0.5l0.12-0.39c-0.32,0.56-0.6,0.92-0.83,1.11c-0.18,0.14-0.35,0.2-0.52,0.2
									c-0.19,0-0.35-0.08-0.48-0.23c-0.13-0.15-0.2-0.38-0.2-0.67c0-0.38,0.08-0.74,0.25-1.11c0.17-0.37,0.37-0.67,0.59-0.91
									c0.22-0.24,0.43-0.42,0.64-0.52c0.2-0.1,0.4-0.16,0.6-0.16c0.1,0,0.19,0.02,0.27,0.06c0.08,0.04,0.17,0.12,0.27,0.23
									l0.29-0.94c0.08-0.24,0.12-0.41,0.12-0.51c0-0.06-0.03-0.12-0.08-0.16c-0.05-0.04-0.12-0.07-0.21-0.07
									c-0.04,0-0.09,0-0.15,0.01l0.03-0.15l1.31-0.22H114.04z M112.32,20.94c0-0.15-0.03-0.27-0.09-0.34
									c-0.06-0.07-0.13-0.11-0.22-0.11c-0.08,0-0.17,0.04-0.27,0.12c-0.18,0.16-0.38,0.49-0.58,0.97c-0.2,0.49-0.3,0.9-0.3,1.23
									c0,0.12,0.02,0.21,0.07,0.27c0.05,0.06,0.09,0.09,0.15,0.09c0.09,0,0.18-0.04,0.27-0.12c0.22-0.19,0.44-0.52,0.65-0.98
									C112.21,21.6,112.32,21.23,112.32,20.94 M116.46,20.28c0.2,0,0.39,0.05,0.57,0.14c0.18,0.09,0.31,0.22,0.4,0.38
									c0.09,0.16,0.14,0.34,0.14,0.54c0,0.41-0.12,0.82-0.35,1.22c-0.23,0.41-0.53,0.73-0.91,0.96c-0.38,0.24-0.76,0.35-1.14,0.35
									c-0.35,0-0.61-0.1-0.8-0.3c-0.19-0.2-0.29-0.45-0.29-0.75c0-0.35,0.07-0.68,0.21-0.98c0.14-0.31,0.32-0.57,0.54-0.8
									c0.22-0.23,0.47-0.41,0.75-0.56C115.87,20.35,116.16,20.28,116.46,20.28 M116.31,20.49c-0.13,0-0.25,0.04-0.34,0.12
									c-0.18,0.16-0.38,0.53-0.6,1.11c-0.22,0.58-0.34,1.11-0.34,1.58c0,0.12,0.03,0.21,0.11,0.29c0.07,0.08,0.16,0.11,0.25,0.11
									c0.1,0,0.19-0.03,0.26-0.09c0.11-0.09,0.25-0.29,0.41-0.61c0.16-0.32,0.3-0.66,0.4-1.04c0.1-0.38,0.16-0.73,0.16-1.05
									c0-0.13-0.03-0.23-0.09-0.3C116.46,20.52,116.39,20.49,116.31,20.49 M120.08,20.28l-0.68,2.12
									c0.46-1.04,0.81-1.67,1.04-1.91c0.14-0.14,0.28-0.21,0.43-0.21c0.1,0,0.19,0.04,0.25,0.11c0.06,0.08,0.1,0.19,0.1,0.33
									c0,0.24-0.06,0.45-0.18,0.61c-0.07,0.11-0.16,0.16-0.25,0.16c-0.1,0-0.17-0.05-0.22-0.14c-0.05-0.09-0.08-0.15-0.1-0.16
									c-0.02-0.02-0.04-0.02-0.06-0.02c-0.02,0-0.05,0.01-0.08,0.02c-0.06,0.03-0.13,0.1-0.21,0.22c-0.09,0.12-0.2,0.31-0.33,0.59
									c-0.13,0.28-0.23,0.51-0.3,0.7c-0.07,0.19-0.18,0.55-0.33,1.08h-0.93l0.72-2.5c0.05-0.19,0.07-0.31,0.07-0.37
									c0-0.07-0.02-0.12-0.05-0.16c-0.03-0.04-0.07-0.07-0.12-0.08c-0.05-0.02-0.16-0.03-0.32-0.03l0.03-0.11l1.28-0.26H120.08z
									 M122.61,22.36c-0.02,0.16-0.03,0.3-0.03,0.4c0,0.19,0.06,0.34,0.17,0.45c0.11,0.11,0.26,0.17,0.44,0.17
									c0.18,0,0.36-0.04,0.54-0.11c0.18-0.08,0.39-0.21,0.62-0.4l0.12,0.1c-0.29,0.33-0.58,0.56-0.85,0.7
									c-0.28,0.14-0.58,0.21-0.92,0.21c-0.42,0-0.72-0.1-0.88-0.3c-0.16-0.2-0.24-0.43-0.24-0.7c0-0.41,0.12-0.82,0.36-1.24
									c0.24-0.41,0.57-0.74,0.99-0.99c0.42-0.25,0.84-0.37,1.26-0.37c0.21,0,0.37,0.05,0.48,0.15c0.11,0.1,0.16,0.23,0.16,0.38
									c0,0.18-0.05,0.36-0.16,0.54c-0.15,0.24-0.33,0.43-0.56,0.57c-0.22,0.15-0.47,0.25-0.75,0.33
									C123.17,22.3,122.92,22.34,122.61,22.36 M122.64,22.17c0.23-0.03,0.4-0.08,0.52-0.13c0.12-0.06,0.25-0.15,0.36-0.27
									c0.12-0.12,0.22-0.28,0.31-0.47c0.09-0.19,0.13-0.37,0.13-0.53c0-0.07-0.02-0.12-0.06-0.16c-0.04-0.04-0.09-0.06-0.15-0.06
									c-0.12,0-0.26,0.08-0.41,0.25C123.07,21.1,122.83,21.56,122.64,22.17 M128.04,20.28l-0.16,1.17h-0.14
									c-0.02-0.3-0.11-0.54-0.28-0.71c-0.17-0.17-0.35-0.26-0.53-0.26c-0.12,0-0.21,0.03-0.29,0.1c-0.08,0.07-0.12,0.15-0.12,0.25
									c0,0.08,0.02,0.16,0.05,0.23c0.03,0.07,0.11,0.17,0.22,0.29c0.4,0.43,0.64,0.72,0.73,0.88c0.09,0.16,0.13,0.33,0.13,0.52
									c0,0.2-0.05,0.38-0.15,0.56c-0.1,0.18-0.25,0.32-0.46,0.42c-0.2,0.11-0.41,0.16-0.63,0.16c-0.15,0-0.33-0.03-0.54-0.08
									c-0.14-0.04-0.25-0.06-0.32-0.06c-0.06,0-0.11,0.01-0.15,0.03c-0.03,0.02-0.07,0.06-0.12,0.11h-0.14l0.19-1.25h0.12
									c0.09,0.31,0.17,0.53,0.25,0.66c0.08,0.13,0.18,0.23,0.31,0.31c0.13,0.08,0.25,0.12,0.37,0.12c0.14,0,0.26-0.04,0.35-0.13
									c0.09-0.09,0.14-0.19,0.14-0.31c0-0.12-0.03-0.23-0.09-0.34c-0.06-0.11-0.2-0.28-0.41-0.52c-0.3-0.32-0.49-0.57-0.58-0.74
									c-0.07-0.13-0.1-0.27-0.1-0.43c0-0.27,0.1-0.5,0.3-0.68c0.2-0.18,0.48-0.27,0.84-0.27c0.16,0,0.35,0.03,0.58,0.09
									c0.11,0.03,0.21,0.04,0.27,0.04c0.1,0,0.18-0.04,0.24-0.13H128.04z M134.73,18.54l-1.29,4.22
									c-0.08,0.27-0.12,0.42-0.12,0.48c0,0.03,0.01,0.05,0.03,0.07c0.02,0.02,0.04,0.03,0.06,0.03c0.04,0,0.09-0.02,0.15-0.06
									c0.09-0.07,0.21-0.21,0.34-0.4l0.14,0.07c-0.36,0.62-0.76,0.93-1.19,0.93c-0.15,0-0.27-0.04-0.35-0.12
									c-0.08-0.08-0.12-0.18-0.12-0.3c0-0.12,0.03-0.29,0.1-0.5l0.12-0.39c-0.32,0.56-0.59,0.92-0.83,1.11
									c-0.18,0.14-0.35,0.2-0.52,0.2c-0.19,0-0.35-0.08-0.48-0.23c-0.13-0.15-0.2-0.38-0.2-0.67c0-0.38,0.08-0.74,0.25-1.11
									c0.17-0.37,0.37-0.67,0.59-0.91c0.22-0.24,0.43-0.42,0.64-0.52c0.2-0.1,0.4-0.16,0.59-0.16c0.1,0,0.19,0.02,0.27,0.06
									c0.08,0.04,0.17,0.12,0.27,0.23l0.29-0.94c0.08-0.24,0.11-0.41,0.11-0.51c0-0.06-0.03-0.12-0.08-0.16
									c-0.05-0.04-0.12-0.07-0.21-0.07c-0.04,0-0.09,0-0.15,0.01l0.03-0.15l1.32-0.22H134.73z M133.01,20.94
									c0-0.15-0.03-0.27-0.09-0.34c-0.06-0.07-0.13-0.11-0.22-0.11c-0.08,0-0.17,0.04-0.27,0.12c-0.18,0.16-0.37,0.49-0.58,0.97
									c-0.2,0.49-0.3,0.9-0.3,1.23c0,0.12,0.02,0.21,0.07,0.27c0.04,0.06,0.09,0.09,0.15,0.09c0.09,0,0.18-0.04,0.27-0.12
									c0.22-0.19,0.44-0.52,0.65-0.98C132.9,21.6,133.01,21.23,133.01,20.94 M135.8,22.36c-0.02,0.16-0.03,0.3-0.03,0.4
									c0,0.19,0.06,0.34,0.17,0.45c0.11,0.11,0.26,0.17,0.44,0.17c0.18,0,0.36-0.04,0.54-0.11c0.18-0.08,0.39-0.21,0.63-0.4
									l0.12,0.1c-0.29,0.33-0.58,0.56-0.85,0.7c-0.28,0.14-0.58,0.21-0.92,0.21c-0.42,0-0.72-0.1-0.88-0.3
									c-0.16-0.2-0.24-0.43-0.24-0.7c0-0.41,0.12-0.82,0.36-1.24c0.24-0.41,0.57-0.74,0.99-0.99c0.42-0.25,0.84-0.37,1.26-0.37
									c0.21,0,0.37,0.05,0.48,0.15c0.11,0.1,0.16,0.23,0.16,0.38c0,0.18-0.05,0.36-0.16,0.54c-0.15,0.24-0.33,0.43-0.56,0.57
									c-0.22,0.15-0.48,0.25-0.75,0.33C136.37,22.3,136.12,22.34,135.8,22.36 M135.84,22.17c0.22-0.03,0.4-0.08,0.52-0.13
									c0.12-0.06,0.25-0.15,0.36-0.27c0.12-0.12,0.22-0.28,0.31-0.47c0.09-0.19,0.13-0.37,0.13-0.53c0-0.07-0.02-0.12-0.06-0.16
									c-0.04-0.04-0.09-0.06-0.15-0.06c-0.12,0-0.26,0.08-0.42,0.25C136.26,21.1,136.02,21.56,135.84,22.17 M142.81,18.54
									l-1.31,4.28c-0.08,0.25-0.11,0.41-0.11,0.47c0,0.03,0.01,0.06,0.03,0.08c0.02,0.02,0.05,0.03,0.07,0.03
									c0.05,0,0.09-0.02,0.13-0.05c0.12-0.09,0.26-0.25,0.41-0.48l0.15,0.07c-0.24,0.37-0.48,0.63-0.72,0.78
									c-0.16,0.11-0.33,0.16-0.51,0.16c-0.17,0-0.3-0.04-0.4-0.13c-0.1-0.09-0.15-0.2-0.15-0.32c0-0.1,0.03-0.24,0.09-0.45
									l1.07-3.48c0.06-0.19,0.09-0.32,0.09-0.38c0-0.06-0.03-0.11-0.09-0.14c-0.08-0.05-0.19-0.07-0.35-0.06l0.03-0.15l1.33-0.22
									H142.81z M146.49,20.34l-0.75,2.51l-0.08,0.31c-0.01,0.04-0.01,0.07-0.01,0.08c0,0.03,0.01,0.06,0.03,0.08
									c0.02,0.02,0.04,0.03,0.07,0.03c0.05,0,0.12-0.04,0.22-0.12c0.04-0.03,0.13-0.15,0.27-0.35l0.13,0.07
									c-0.18,0.33-0.37,0.56-0.58,0.71c-0.2,0.15-0.42,0.22-0.66,0.22c-0.14,0-0.25-0.04-0.33-0.11
									c-0.08-0.07-0.11-0.17-0.11-0.28c0-0.1,0.04-0.28,0.13-0.55l0.09-0.31c-0.3,0.5-0.58,0.86-0.85,1.06
									c-0.16,0.12-0.33,0.18-0.5,0.18c-0.23,0-0.4-0.1-0.51-0.28c-0.1-0.19-0.16-0.4-0.16-0.64c0-0.35,0.11-0.76,0.33-1.22
									c0.22-0.46,0.51-0.83,0.87-1.11c0.29-0.23,0.57-0.35,0.83-0.35c0.14,0,0.26,0.04,0.34,0.12c0.09,0.08,0.15,0.23,0.19,0.45
									l0.14-0.46L146.49,20.34z M145.27,21.06c0-0.2-0.03-0.35-0.1-0.44c-0.05-0.06-0.11-0.09-0.19-0.09
									c-0.08,0-0.16,0.04-0.25,0.11c-0.17,0.15-0.36,0.47-0.56,0.95c-0.2,0.48-0.3,0.89-0.3,1.23c0,0.13,0.02,0.23,0.07,0.29
									c0.04,0.06,0.09,0.09,0.15,0.09c0.12,0,0.23-0.07,0.35-0.2c0.17-0.19,0.32-0.41,0.46-0.68
									C145.14,21.84,145.27,21.43,145.27,21.06 M85.41,26.17l-0.57,1.99h0.18c0.46,0,0.8-0.06,1.02-0.18
									c0.21-0.12,0.4-0.33,0.54-0.64h0.13l-0.58,1.99h-0.13c0.02-0.13,0.03-0.24,0.03-0.32c0-0.14-0.04-0.25-0.12-0.34
									c-0.08-0.09-0.19-0.15-0.32-0.19c-0.09-0.02-0.26-0.04-0.53-0.04h-0.29l-0.5,1.72c-0.04,0.15-0.06,0.26-0.06,0.34
									c0,0.06,0.03,0.1,0.08,0.14c0.08,0.05,0.24,0.08,0.46,0.08c0.43,0,0.84-0.09,1.23-0.27c0.38-0.18,0.73-0.46,1.03-0.83h0.16
									l-0.54,1.41h-4.37l0.05-0.13c0.25,0,0.43-0.05,0.54-0.15c0.11-0.1,0.22-0.31,0.31-0.65l0.95-3.31
									c0.05-0.18,0.08-0.33,0.08-0.44c0-0.1-0.04-0.17-0.11-0.22c-0.07-0.05-0.23-0.09-0.48-0.1l0.03-0.13h4.17l-0.34,1.28h-0.13
									c-0.01-0.25-0.05-0.43-0.12-0.53c-0.11-0.16-0.25-0.28-0.43-0.35c-0.18-0.07-0.47-0.11-0.87-0.11H85.41z M92.28,25.76
									l-1.29,4.22c-0.08,0.26-0.12,0.42-0.12,0.48c0,0.03,0.01,0.05,0.03,0.07c0.02,0.02,0.04,0.03,0.06,0.03
									c0.04,0,0.09-0.02,0.15-0.07c0.09-0.07,0.21-0.2,0.34-0.4l0.14,0.07c-0.36,0.62-0.76,0.93-1.19,0.93
									c-0.15,0-0.27-0.04-0.35-0.12c-0.08-0.08-0.12-0.18-0.12-0.3c0-0.12,0.03-0.29,0.1-0.5l0.12-0.39
									c-0.32,0.56-0.59,0.92-0.83,1.11c-0.18,0.14-0.35,0.2-0.52,0.2c-0.19,0-0.35-0.08-0.48-0.23c-0.13-0.15-0.2-0.38-0.2-0.67
									c0-0.37,0.08-0.74,0.25-1.11c0.17-0.37,0.37-0.67,0.59-0.91c0.22-0.24,0.44-0.42,0.64-0.52c0.2-0.1,0.4-0.16,0.59-0.16
									c0.1,0,0.19,0.02,0.27,0.06c0.08,0.04,0.17,0.12,0.27,0.24l0.29-0.94c0.08-0.24,0.11-0.41,0.11-0.52
									c0-0.06-0.03-0.12-0.08-0.16c-0.05-0.04-0.12-0.07-0.21-0.07c-0.04,0-0.09,0-0.15,0.01l0.03-0.15l1.31-0.23H92.28z
									 M90.56,28.16c0-0.15-0.03-0.27-0.09-0.34c-0.06-0.07-0.14-0.11-0.22-0.11c-0.08,0-0.17,0.04-0.27,0.12
									c-0.18,0.16-0.38,0.49-0.58,0.97c-0.2,0.49-0.3,0.9-0.3,1.23c0,0.12,0.02,0.21,0.07,0.27c0.05,0.06,0.09,0.09,0.15,0.09
									c0.09,0,0.18-0.04,0.27-0.12c0.22-0.19,0.44-0.52,0.65-0.98C90.46,28.82,90.56,28.45,90.56,28.16 M94.43,27.5l-0.81,2.56
									c-0.04,0.12-0.06,0.2-0.06,0.25c0,0.02,0.01,0.04,0.03,0.05c0.02,0.02,0.04,0.03,0.07,0.03c0.11,0,0.27-0.1,0.46-0.31
									c0.27-0.3,0.56-0.73,0.86-1.29l0.36-1.15l0.96-0.03l-0.75,2.51c-0.06,0.21-0.09,0.33-0.09,0.37c0,0.02,0.01,0.04,0.03,0.06
									c0.02,0.02,0.04,0.03,0.06,0.03c0.04,0,0.07-0.01,0.1-0.04c0.09-0.07,0.22-0.21,0.37-0.43l0.13,0.09
									c-0.36,0.61-0.75,0.92-1.17,0.92c-0.16,0-0.28-0.04-0.37-0.12c-0.09-0.08-0.14-0.18-0.14-0.31c0-0.14,0.03-0.31,0.1-0.52
									l0.19-0.64c-0.33,0.48-0.57,0.8-0.72,0.96c-0.23,0.25-0.42,0.41-0.57,0.5c-0.15,0.08-0.3,0.12-0.44,0.12
									c-0.13,0-0.25-0.05-0.35-0.14c-0.1-0.1-0.15-0.22-0.15-0.37c0-0.13,0.04-0.3,0.11-0.52l0.48-1.51
									c0.07-0.25,0.11-0.41,0.11-0.5c0-0.04-0.01-0.07-0.03-0.1c-0.02-0.03-0.05-0.05-0.09-0.07c-0.04-0.02-0.11-0.02-0.21-0.02
									l0.03-0.15l1.29-0.22H94.43z M99.7,30.1l0.12,0.1c-0.25,0.29-0.49,0.5-0.73,0.64c-0.32,0.18-0.65,0.27-0.99,0.27
									c-0.23,0-0.43-0.05-0.61-0.14c-0.18-0.1-0.31-0.23-0.39-0.41c-0.08-0.18-0.13-0.35-0.13-0.54c0-0.41,0.11-0.82,0.34-1.22
									c0.23-0.4,0.53-0.72,0.9-0.95c0.37-0.23,0.74-0.35,1.1-0.35c0.29,0,0.5,0.06,0.65,0.19c0.14,0.13,0.22,0.28,0.22,0.47
									c0,0.17-0.05,0.31-0.17,0.43c-0.11,0.12-0.23,0.18-0.37,0.18c-0.12,0-0.22-0.04-0.29-0.11c-0.08-0.07-0.12-0.16-0.12-0.27
									c0-0.14,0.07-0.25,0.21-0.35c0.09-0.07,0.14-0.13,0.14-0.19c0-0.04-0.02-0.08-0.06-0.11c-0.05-0.04-0.12-0.06-0.2-0.06
									c-0.21,0-0.42,0.08-0.6,0.26c-0.25,0.23-0.44,0.52-0.57,0.86c-0.13,0.35-0.2,0.68-0.2,0.99c0,0.25,0.07,0.45,0.2,0.59
									c0.13,0.15,0.3,0.22,0.48,0.22c0.16,0,0.34-0.04,0.53-0.12C99.34,30.39,99.52,30.27,99.7,30.1 M104.26,27.56l-0.75,2.51
									l-0.08,0.31c-0.01,0.04-0.01,0.07-0.01,0.08c0,0.03,0.01,0.05,0.03,0.08c0.02,0.02,0.04,0.03,0.06,0.03
									c0.05,0,0.12-0.04,0.22-0.12c0.04-0.03,0.13-0.15,0.27-0.35l0.13,0.07c-0.18,0.33-0.37,0.56-0.58,0.71
									c-0.2,0.15-0.42,0.22-0.66,0.22c-0.14,0-0.25-0.04-0.33-0.11c-0.08-0.07-0.11-0.17-0.11-0.28c0-0.1,0.04-0.28,0.12-0.55
									l0.09-0.31c-0.29,0.5-0.58,0.86-0.85,1.06c-0.16,0.12-0.33,0.18-0.5,0.18c-0.23,0-0.4-0.09-0.51-0.28
									c-0.1-0.19-0.16-0.4-0.16-0.64c0-0.35,0.11-0.76,0.33-1.22c0.22-0.46,0.51-0.83,0.87-1.11c0.29-0.23,0.57-0.35,0.83-0.35
									c0.14,0,0.26,0.04,0.35,0.12c0.09,0.08,0.15,0.23,0.19,0.45l0.14-0.46L104.26,27.56z M103.04,28.28
									c0-0.2-0.03-0.35-0.1-0.44c-0.05-0.06-0.11-0.09-0.19-0.09c-0.08,0-0.16,0.04-0.25,0.11c-0.17,0.15-0.36,0.47-0.56,0.95
									c-0.2,0.48-0.3,0.89-0.3,1.23c0,0.13,0.02,0.23,0.07,0.29c0.04,0.06,0.09,0.09,0.15,0.09c0.12,0,0.23-0.07,0.35-0.2
									c0.17-0.19,0.32-0.41,0.46-0.68C102.92,29.06,103.04,28.64,103.04,28.28"/>
								<path class="st0" d="M107.62,30.1l0.12,0.1c-0.25,0.29-0.49,0.5-0.73,0.64c-0.32,0.18-0.65,0.27-0.99,0.27
									c-0.23,0-0.43-0.05-0.61-0.15c-0.18-0.1-0.31-0.23-0.39-0.41c-0.09-0.18-0.13-0.35-0.13-0.54c0-0.41,0.11-0.82,0.34-1.22
									c0.23-0.4,0.53-0.72,0.9-0.95c0.37-0.23,0.74-0.35,1.1-0.35c0.29,0,0.5,0.06,0.65,0.19c0.14,0.13,0.22,0.28,0.22,0.47
									c0,0.17-0.05,0.31-0.17,0.43c-0.11,0.12-0.23,0.18-0.37,0.18c-0.12,0-0.22-0.04-0.29-0.11c-0.08-0.07-0.12-0.16-0.12-0.27
									c0-0.14,0.07-0.25,0.21-0.35c0.09-0.07,0.14-0.13,0.14-0.19c0-0.04-0.02-0.08-0.06-0.11c-0.05-0.04-0.12-0.06-0.2-0.06
									c-0.21,0-0.41,0.08-0.6,0.26c-0.25,0.23-0.44,0.52-0.57,0.86c-0.13,0.35-0.2,0.68-0.2,0.99c0,0.25,0.07,0.44,0.2,0.59
									c0.13,0.15,0.3,0.22,0.48,0.22c0.16,0,0.34-0.04,0.53-0.12C107.27,30.39,107.45,30.27,107.62,30.1 M110.2,25.76
									c0.16,0,0.29,0.05,0.4,0.16c0.11,0.11,0.16,0.24,0.16,0.4c0,0.15-0.06,0.29-0.17,0.4c-0.11,0.11-0.24,0.16-0.4,0.16
									c-0.15,0-0.29-0.06-0.4-0.16c-0.11-0.11-0.17-0.24-0.17-0.4c0-0.15,0.06-0.29,0.16-0.4
									C109.91,25.82,110.04,25.76,110.2,25.76 M110.51,27.5l-0.84,2.66c-0.05,0.15-0.07,0.25-0.07,0.3c0,0.03,0.01,0.06,0.03,0.08
									c0.02,0.02,0.05,0.04,0.07,0.04c0.04,0,0.08-0.02,0.13-0.06c0.11-0.1,0.25-0.27,0.4-0.53l0.13,0.08
									c-0.39,0.69-0.8,1.03-1.23,1.03c-0.17,0-0.3-0.04-0.4-0.14c-0.1-0.09-0.15-0.21-0.15-0.35c0-0.09,0.02-0.21,0.07-0.35
									l0.58-1.81c0.06-0.17,0.08-0.3,0.08-0.39c0-0.06-0.03-0.1-0.08-0.15c-0.05-0.04-0.12-0.07-0.21-0.07c-0.04,0-0.09,0-0.15,0
									l0.05-0.15l1.34-0.21H110.51z M113.44,27.5c0.2,0,0.39,0.05,0.57,0.14c0.18,0.09,0.31,0.22,0.4,0.38
									c0.09,0.16,0.14,0.34,0.14,0.54c0,0.41-0.12,0.81-0.35,1.22c-0.23,0.41-0.53,0.73-0.91,0.96c-0.38,0.24-0.76,0.35-1.14,0.35
									c-0.35,0-0.61-0.1-0.8-0.31c-0.19-0.2-0.28-0.45-0.28-0.75c0-0.35,0.07-0.68,0.21-0.98c0.14-0.31,0.32-0.57,0.54-0.8
									c0.22-0.23,0.47-0.41,0.75-0.56C112.84,27.57,113.14,27.5,113.44,27.5 M113.28,27.7c-0.13,0-0.25,0.04-0.34,0.12
									c-0.18,0.16-0.38,0.53-0.6,1.11c-0.22,0.58-0.34,1.11-0.34,1.58c0,0.12,0.04,0.21,0.11,0.29c0.07,0.08,0.16,0.11,0.25,0.11
									c0.1,0,0.19-0.03,0.26-0.09c0.11-0.09,0.25-0.29,0.41-0.61c0.16-0.32,0.3-0.66,0.4-1.04c0.1-0.38,0.16-0.73,0.16-1.05
									c0-0.13-0.03-0.23-0.09-0.3C113.44,27.74,113.37,27.7,113.28,27.7 M113.62,25.74h1.17l-1.28,1.32h-0.34L113.62,25.74z
									 M117.19,27.5l-0.49,1.62c0.34-0.48,0.59-0.8,0.76-0.97c0.25-0.25,0.46-0.42,0.64-0.51c0.18-0.09,0.35-0.14,0.5-0.14
									c0.14,0,0.26,0.05,0.36,0.16c0.1,0.11,0.15,0.24,0.15,0.42c0,0.14-0.03,0.31-0.1,0.51l-0.52,1.59
									c-0.04,0.14-0.07,0.23-0.07,0.27c0,0.03,0.01,0.05,0.03,0.07c0.02,0.02,0.04,0.03,0.06,0.03c0.02,0,0.05-0.01,0.08-0.03
									c0.09-0.07,0.18-0.17,0.27-0.31c0.02-0.03,0.06-0.09,0.11-0.16l0.15,0.08c-0.38,0.61-0.78,0.92-1.19,0.92
									c-0.16,0-0.28-0.04-0.37-0.12c-0.09-0.08-0.14-0.18-0.14-0.3c0-0.11,0.03-0.26,0.1-0.47l0.52-1.62
									c0.04-0.11,0.05-0.19,0.05-0.24c0-0.03-0.01-0.05-0.04-0.07c-0.02-0.02-0.05-0.03-0.09-0.03c-0.11,0-0.23,0.07-0.38,0.2
									c-0.38,0.33-0.75,0.83-1.11,1.49l-0.33,1.12h-0.98l0.73-2.42c0.07-0.24,0.11-0.41,0.12-0.51c0-0.04-0.01-0.08-0.03-0.11
									c-0.02-0.03-0.06-0.05-0.11-0.07c-0.05-0.02-0.15-0.02-0.28-0.02l0.03-0.15l1.34-0.22H117.19z"/>
							</g>
							<g>
								<path class="st1" d="M15.44,41.96h-0.79l0.5-1.49h0.7L15.44,41.96z M16.6,41.96h-0.8l0.49-1.49h0.7L16.6,41.96z"/>
								<path class="st1" d="M20.59,41.67c0,0.23-0.04,0.42-0.13,0.57c-0.08,0.16-0.2,0.28-0.34,0.38c-0.14,0.09-0.31,0.17-0.5,0.21
									c-0.19,0.05-0.38,0.07-0.59,0.07h-0.47v1.47h-0.94v-3.9h1.44c0.21,0,0.41,0.02,0.6,0.06c0.19,0.04,0.35,0.11,0.49,0.2
									c0.14,0.09,0.25,0.22,0.33,0.37C20.55,41.26,20.59,41.45,20.59,41.67z M19.64,41.68c0-0.09-0.02-0.17-0.06-0.23
									c-0.04-0.06-0.09-0.11-0.15-0.14c-0.06-0.03-0.13-0.06-0.21-0.07c-0.08-0.01-0.16-0.02-0.25-0.02h-0.41v0.92h0.4
									c0.09,0,0.17-0.01,0.25-0.02c0.08-0.01,0.15-0.04,0.22-0.08c0.06-0.04,0.12-0.09,0.15-0.15
									C19.62,41.84,19.64,41.77,19.64,41.68z"/>
								<path class="st1" d="M25.23,42.4c0,0.31-0.05,0.59-0.16,0.84c-0.11,0.26-0.26,0.47-0.44,0.65
									c-0.19,0.18-0.42,0.32-0.68,0.42c-0.26,0.1-0.55,0.15-0.85,0.15c-0.31,0-0.59-0.05-0.85-0.15c-0.26-0.1-0.48-0.24-0.67-0.42
									c-0.19-0.18-0.34-0.4-0.45-0.65c-0.11-0.26-0.16-0.54-0.16-0.84c0-0.31,0.05-0.59,0.16-0.85c0.11-0.25,0.26-0.46,0.45-0.64
									c0.19-0.18,0.41-0.31,0.67-0.41c0.26-0.09,0.54-0.14,0.85-0.14c0.31,0,0.59,0.05,0.85,0.14c0.26,0.1,0.49,0.23,0.68,0.41
									c0.19,0.18,0.34,0.39,0.44,0.64C25.18,41.81,25.23,42.09,25.23,42.4z M24.22,42.4c0-0.17-0.03-0.33-0.08-0.47
									c-0.06-0.15-0.13-0.27-0.23-0.38c-0.1-0.1-0.21-0.19-0.35-0.25c-0.14-0.06-0.29-0.09-0.45-0.09c-0.17,0-0.32,0.03-0.45,0.09
									c-0.14,0.06-0.25,0.14-0.35,0.25c-0.1,0.11-0.18,0.23-0.23,0.38c-0.05,0.15-0.08,0.3-0.08,0.47c0,0.18,0.03,0.34,0.08,0.49
									c0.06,0.15,0.13,0.28,0.23,0.38c0.1,0.11,0.21,0.19,0.35,0.25c0.14,0.06,0.29,0.09,0.45,0.09c0.17,0,0.32-0.03,0.45-0.09
									c0.14-0.06,0.25-0.14,0.35-0.25c0.1-0.11,0.18-0.23,0.23-0.38C24.2,42.74,24.22,42.58,24.22,42.4z"/>
								<path class="st1" d="M27.95,44.37l-0.85-1.55h-0.32v1.55h-0.92v-3.9h1.49c0.19,0,0.37,0.02,0.55,0.06
									c0.18,0.04,0.34,0.1,0.48,0.2c0.14,0.09,0.25,0.21,0.34,0.36c0.09,0.15,0.13,0.34,0.13,0.56c0,0.26-0.07,0.49-0.22,0.67
									c-0.14,0.18-0.34,0.31-0.6,0.39l1.02,1.67H27.95z M27.91,41.66c0-0.09-0.02-0.17-0.06-0.22c-0.04-0.06-0.09-0.1-0.15-0.13
									c-0.06-0.03-0.13-0.05-0.21-0.06c-0.08-0.01-0.15-0.02-0.22-0.02h-0.51v0.91h0.45c0.08,0,0.16-0.01,0.24-0.02
									c0.08-0.01,0.16-0.04,0.22-0.07c0.07-0.03,0.12-0.08,0.16-0.14C27.89,41.84,27.91,41.76,27.91,41.66z"/>
								<path class="st1" d="M30.9,44.37v-3.9h0.95v3.08h1.51v0.82H30.9z"/>
								<path class="st1" d="M36.46,44.37l-0.3-0.76h-1.51l-0.29,0.76h-1.03l1.64-3.9h0.92l1.62,3.9H36.46z M35.41,41.51l-0.5,1.34
									h0.98L35.41,41.51z"/>
								<path class="st1" d="M39.12,44.37v-3.9h2.63v0.79h-1.72V42h1.62v0.75h-1.62v0.81h1.82v0.8H39.12z"/>
								<path class="st1" d="M46.12,42.41c0,0.34-0.06,0.63-0.19,0.88c-0.13,0.25-0.29,0.45-0.5,0.61c-0.21,0.16-0.44,0.28-0.7,0.35
									c-0.26,0.08-0.53,0.11-0.8,0.11h-1.46v-3.9h1.41c0.28,0,0.55,0.03,0.82,0.1c0.27,0.06,0.51,0.17,0.72,0.32
									c0.21,0.15,0.38,0.35,0.51,0.6C46.06,41.73,46.12,42.04,46.12,42.41z M45.14,42.41c0-0.22-0.04-0.4-0.11-0.55
									c-0.07-0.14-0.17-0.26-0.29-0.35c-0.12-0.09-0.26-0.15-0.41-0.18c-0.15-0.04-0.31-0.05-0.47-0.05h-0.47v2.28h0.45
									c0.17,0,0.33-0.02,0.49-0.06c0.16-0.04,0.3-0.1,0.41-0.19c0.12-0.09,0.22-0.21,0.29-0.35
									C45.1,42.81,45.14,42.62,45.14,42.41z"/>
								<path class="st1" d="M49.94,43.54c-0.08,0.19-0.19,0.36-0.34,0.5c-0.15,0.14-0.33,0.25-0.53,0.32
									c-0.21,0.08-0.44,0.12-0.69,0.12c-0.26,0-0.49-0.04-0.7-0.12c-0.21-0.08-0.38-0.18-0.53-0.32c-0.14-0.14-0.25-0.3-0.33-0.5
									c-0.08-0.19-0.12-0.41-0.12-0.64v-2.43h0.94v2.35c0,0.11,0.01,0.21,0.04,0.3c0.03,0.09,0.07,0.18,0.13,0.26
									c0.06,0.08,0.13,0.13,0.23,0.18c0.09,0.04,0.21,0.07,0.34,0.07c0.13,0,0.25-0.02,0.34-0.07c0.09-0.05,0.17-0.1,0.23-0.18
									c0.06-0.08,0.1-0.16,0.13-0.26c0.03-0.1,0.04-0.2,0.04-0.3v-2.35h0.95v2.43C50.06,43.13,50.02,43.35,49.94,43.54z"/>
								<path class="st1" d="M53.63,44.3c-0.25,0.11-0.55,0.17-0.88,0.17c-0.3,0-0.58-0.05-0.84-0.15c-0.26-0.1-0.48-0.24-0.67-0.42
									c-0.19-0.18-0.34-0.4-0.44-0.65c-0.11-0.25-0.16-0.53-0.16-0.84c0-0.31,0.05-0.59,0.16-0.85c0.11-0.25,0.26-0.47,0.45-0.65
									c0.19-0.18,0.42-0.31,0.67-0.41c0.26-0.09,0.54-0.14,0.83-0.14c0.28,0,0.55,0.05,0.82,0.15c0.27,0.1,0.48,0.24,0.65,0.43
									l-0.64,0.64c-0.09-0.12-0.2-0.21-0.35-0.27c-0.14-0.06-0.29-0.09-0.44-0.09c-0.17,0-0.32,0.03-0.46,0.09
									c-0.14,0.06-0.26,0.14-0.36,0.25c-0.1,0.11-0.18,0.23-0.23,0.38c-0.06,0.14-0.08,0.3-0.08,0.48c0,0.18,0.03,0.34,0.08,0.49
									c0.05,0.15,0.13,0.27,0.23,0.38c0.1,0.1,0.21,0.19,0.35,0.24c0.14,0.06,0.29,0.09,0.45,0.09c0.19,0,0.35-0.04,0.49-0.11
									c0.14-0.07,0.25-0.17,0.34-0.29l0.66,0.62C54.09,44.03,53.88,44.18,53.63,44.3z"/>
								<path class="st1" d="M57.26,44.37l-0.3-0.76h-1.51l-0.29,0.76h-1.03l1.64-3.9h0.92l1.62,3.9H57.26z M56.21,41.51l-0.5,1.34
									h0.98L56.21,41.51z"/>
								<path class="st1" d="M61.33,44.3c-0.25,0.11-0.55,0.17-0.88,0.17c-0.3,0-0.58-0.05-0.84-0.15c-0.26-0.1-0.48-0.24-0.67-0.42
									c-0.19-0.18-0.34-0.4-0.44-0.65c-0.11-0.25-0.16-0.53-0.16-0.84c0-0.31,0.05-0.59,0.16-0.85c0.11-0.25,0.26-0.47,0.45-0.65
									c0.19-0.18,0.42-0.31,0.67-0.41c0.26-0.09,0.54-0.14,0.83-0.14c0.28,0,0.55,0.05,0.81,0.15c0.27,0.1,0.48,0.24,0.65,0.43
									l-0.64,0.64c-0.09-0.12-0.2-0.21-0.35-0.27c-0.14-0.06-0.29-0.09-0.44-0.09c-0.17,0-0.32,0.03-0.46,0.09
									c-0.14,0.06-0.26,0.14-0.36,0.25c-0.1,0.11-0.18,0.23-0.23,0.38c-0.06,0.14-0.08,0.3-0.08,0.48c0,0.18,0.03,0.34,0.08,0.49
									c0.06,0.15,0.13,0.27,0.23,0.38c0.1,0.1,0.22,0.19,0.35,0.24c0.14,0.06,0.29,0.09,0.45,0.09c0.19,0,0.35-0.04,0.49-0.11
									c0.14-0.07,0.25-0.17,0.34-0.29l0.66,0.62C61.8,44.03,61.59,44.18,61.33,44.3z"/>
								<path class="st1" d="M62.38,44.37v-3.9h0.95v3.9H62.38z"/>
								<path class="st1" d="M68.21,42.4c0,0.31-0.05,0.59-0.16,0.84c-0.11,0.26-0.26,0.47-0.44,0.65
									c-0.19,0.18-0.42,0.32-0.68,0.42c-0.26,0.1-0.55,0.15-0.85,0.15c-0.31,0-0.59-0.05-0.85-0.15c-0.26-0.1-0.48-0.24-0.67-0.42
									c-0.19-0.18-0.34-0.4-0.44-0.65c-0.11-0.26-0.16-0.54-0.16-0.84c0-0.31,0.05-0.59,0.16-0.85c0.11-0.25,0.25-0.46,0.44-0.64
									c0.19-0.18,0.41-0.31,0.67-0.41c0.26-0.09,0.54-0.14,0.85-0.14c0.31,0,0.59,0.05,0.85,0.14c0.26,0.1,0.49,0.23,0.68,0.41
									c0.19,0.18,0.34,0.39,0.44,0.64C68.16,41.81,68.21,42.09,68.21,42.4z M67.2,42.4c0-0.17-0.03-0.33-0.08-0.47
									c-0.06-0.15-0.13-0.27-0.23-0.38c-0.1-0.1-0.22-0.19-0.35-0.25c-0.14-0.06-0.29-0.09-0.46-0.09c-0.17,0-0.32,0.03-0.45,0.09
									c-0.14,0.06-0.25,0.14-0.35,0.25c-0.1,0.11-0.18,0.23-0.23,0.38c-0.05,0.15-0.08,0.3-0.08,0.47c0,0.18,0.03,0.34,0.08,0.49
									c0.05,0.15,0.13,0.28,0.23,0.38c0.1,0.11,0.21,0.19,0.35,0.25c0.14,0.06,0.29,0.09,0.45,0.09c0.17,0,0.32-0.03,0.45-0.09
									c0.14-0.06,0.25-0.14,0.35-0.25c0.1-0.11,0.18-0.23,0.23-0.38C67.17,42.74,67.2,42.58,67.2,42.4z M66.27,40.16h-0.69
									l0.57-0.79h0.92L66.27,40.16z"/>
								<path class="st1" d="M71.32,44.37l-1.57-2.55h-0.02l0.02,2.55h-0.92v-3.9h1.08l1.57,2.54h0.02l-0.02-2.54h0.92v3.9H71.32z"
									/>
								<path class="st1" d="M77.14,44.37l-0.3-0.76h-1.51l-0.29,0.76H74l1.64-3.9h0.92l1.62,3.9H77.14z M76.09,41.51l-0.5,1.34
									h0.98L76.09,41.51z"/>
								<path class="st1" d="M78.51,44.37v-3.9h0.95v3.08h1.51v0.82H78.51z"/>
								<path class="st1" d="M84.73,41.48c-0.08-0.1-0.19-0.18-0.32-0.24c-0.13-0.06-0.26-0.09-0.38-0.09
									c-0.06,0-0.13,0.01-0.19,0.02c-0.06,0.01-0.12,0.03-0.17,0.06c-0.05,0.03-0.1,0.07-0.13,0.12
									c-0.04,0.05-0.05,0.11-0.05,0.19c0,0.07,0.01,0.12,0.04,0.17c0.03,0.04,0.07,0.08,0.12,0.11c0.05,0.03,0.12,0.06,0.19,0.09
									c0.07,0.03,0.16,0.06,0.25,0.09c0.13,0.05,0.27,0.09,0.41,0.15c0.14,0.05,0.27,0.12,0.39,0.21c0.12,0.09,0.22,0.2,0.29,0.33
									c0.08,0.13,0.12,0.29,0.12,0.49c0,0.22-0.04,0.42-0.12,0.58c-0.08,0.16-0.19,0.3-0.33,0.4c-0.14,0.11-0.3,0.19-0.48,0.24
									c-0.18,0.05-0.37,0.08-0.56,0.08c-0.28,0-0.55-0.05-0.81-0.15c-0.26-0.1-0.48-0.24-0.65-0.41l0.62-0.63
									c0.1,0.12,0.22,0.22,0.38,0.29c0.16,0.08,0.31,0.12,0.47,0.12c0.07,0,0.14-0.01,0.2-0.02c0.07-0.01,0.12-0.04,0.17-0.07
									c0.05-0.03,0.09-0.08,0.12-0.13c0.03-0.05,0.04-0.12,0.04-0.2c0-0.07-0.02-0.14-0.06-0.19c-0.04-0.05-0.09-0.1-0.16-0.14
									c-0.07-0.04-0.15-0.08-0.25-0.12c-0.1-0.03-0.22-0.07-0.35-0.11c-0.12-0.04-0.25-0.09-0.37-0.14
									c-0.12-0.06-0.23-0.13-0.32-0.21c-0.09-0.09-0.17-0.19-0.23-0.31c-0.06-0.12-0.09-0.27-0.09-0.45c0-0.22,0.04-0.4,0.13-0.56
									c0.09-0.15,0.2-0.28,0.35-0.38c0.14-0.1,0.31-0.17,0.49-0.22c0.18-0.05,0.36-0.07,0.55-0.07c0.22,0,0.45,0.04,0.68,0.12
									c0.23,0.08,0.43,0.2,0.61,0.36L84.73,41.48z"/>
								<path class="st1" d="M85.93,44.37v-3.9h2.63v0.79h-1.72V42h1.62v0.75h-1.62v0.81h1.82v0.8H85.93z"/>
								<path class="st1" d="M91.38,44.37l-0.85-1.55h-0.32v1.55h-0.92v-3.9h1.49c0.19,0,0.37,0.02,0.55,0.06
									c0.18,0.04,0.34,0.1,0.48,0.2c0.14,0.09,0.25,0.21,0.34,0.36c0.09,0.15,0.13,0.34,0.13,0.56c0,0.26-0.07,0.49-0.22,0.67
									c-0.14,0.18-0.34,0.31-0.6,0.39l1.02,1.67H91.38z M91.34,41.66c0-0.09-0.02-0.17-0.06-0.22c-0.04-0.06-0.09-0.1-0.15-0.13
									c-0.06-0.03-0.13-0.05-0.21-0.06c-0.08-0.01-0.15-0.02-0.22-0.02h-0.5v0.91h0.45c0.08,0,0.16-0.01,0.24-0.02
									c0.08-0.01,0.16-0.04,0.22-0.07c0.07-0.03,0.12-0.08,0.16-0.14C91.32,41.84,91.34,41.76,91.34,41.66z"/>
								<path class="st1" d="M94.82,44.37h-0.94l-1.48-3.9h1.06l0.91,2.76h0.02l0.9-2.76h1.04L94.82,44.37z"/>
								<path class="st1" d="M96.65,44.37v-3.9h0.95v3.9H96.65z"/>
								<path class="st1" d="M101.21,44.3c-0.25,0.11-0.55,0.17-0.88,0.17c-0.3,0-0.58-0.05-0.84-0.15
									c-0.26-0.1-0.48-0.24-0.67-0.42c-0.19-0.18-0.34-0.4-0.44-0.65c-0.11-0.25-0.16-0.53-0.16-0.84c0-0.31,0.05-0.59,0.16-0.85
									c0.11-0.25,0.26-0.47,0.45-0.65c0.19-0.18,0.42-0.31,0.67-0.41c0.26-0.09,0.54-0.14,0.83-0.14c0.28,0,0.55,0.05,0.82,0.15
									c0.27,0.1,0.48,0.24,0.65,0.43l-0.64,0.64c-0.09-0.12-0.2-0.21-0.35-0.27c-0.14-0.06-0.29-0.09-0.44-0.09
									c-0.17,0-0.32,0.03-0.46,0.09c-0.14,0.06-0.26,0.14-0.36,0.25c-0.1,0.11-0.18,0.23-0.23,0.38c-0.06,0.14-0.08,0.3-0.08,0.48
									c0,0.18,0.03,0.34,0.08,0.49c0.06,0.15,0.13,0.27,0.23,0.38c0.1,0.1,0.21,0.19,0.35,0.24c0.14,0.06,0.29,0.09,0.45,0.09
									c0.19,0,0.35-0.04,0.49-0.11c0.14-0.07,0.25-0.17,0.34-0.29l0.66,0.62C101.68,44.03,101.46,44.18,101.21,44.3z"/>
								<path class="st1" d="M102.25,44.37v-3.9h0.95v3.9H102.25z"/>
								<path class="st1" d="M108.09,42.4c0,0.31-0.05,0.59-0.16,0.84c-0.11,0.26-0.26,0.47-0.44,0.65
									c-0.19,0.18-0.41,0.32-0.68,0.42c-0.26,0.1-0.54,0.15-0.85,0.15c-0.31,0-0.59-0.05-0.85-0.15c-0.26-0.1-0.48-0.24-0.67-0.42
									c-0.19-0.18-0.34-0.4-0.45-0.65c-0.11-0.26-0.16-0.54-0.16-0.84c0-0.31,0.05-0.59,0.16-0.85c0.11-0.25,0.26-0.46,0.45-0.64
									c0.19-0.18,0.41-0.31,0.67-0.41c0.26-0.09,0.54-0.14,0.85-0.14c0.31,0,0.59,0.05,0.85,0.14c0.26,0.1,0.49,0.23,0.68,0.41
									c0.19,0.18,0.34,0.39,0.44,0.64C108.03,41.81,108.09,42.09,108.09,42.4z M107.08,42.4c0-0.17-0.03-0.33-0.08-0.47
									c-0.06-0.15-0.13-0.27-0.23-0.38c-0.1-0.1-0.22-0.19-0.35-0.25c-0.14-0.06-0.29-0.09-0.46-0.09c-0.17,0-0.32,0.03-0.45,0.09
									c-0.14,0.06-0.25,0.14-0.35,0.25c-0.1,0.11-0.18,0.23-0.23,0.38c-0.05,0.15-0.08,0.3-0.08,0.47c0,0.18,0.03,0.34,0.08,0.49
									c0.05,0.15,0.13,0.28,0.23,0.38c0.1,0.11,0.21,0.19,0.35,0.25c0.14,0.06,0.29,0.09,0.45,0.09c0.17,0,0.32-0.03,0.45-0.09
									c0.14-0.06,0.25-0.14,0.35-0.25c0.1-0.11,0.18-0.23,0.23-0.38C107.05,42.74,107.08,42.58,107.08,42.4z"/>
								<path class="st1" d="M113.74,42.41c0,0.34-0.06,0.63-0.19,0.88c-0.13,0.25-0.29,0.45-0.5,0.61
									c-0.21,0.16-0.44,0.28-0.7,0.35c-0.26,0.08-0.53,0.11-0.8,0.11h-1.46v-3.9h1.41c0.28,0,0.55,0.03,0.82,0.1
									c0.27,0.06,0.51,0.17,0.72,0.32c0.21,0.15,0.38,0.35,0.51,0.6C113.68,41.73,113.74,42.04,113.74,42.41z M112.76,42.41
									c0-0.22-0.04-0.4-0.11-0.55c-0.07-0.14-0.17-0.26-0.29-0.35c-0.12-0.09-0.26-0.15-0.41-0.18c-0.15-0.04-0.31-0.05-0.47-0.05
									h-0.47v2.28h0.45c0.17,0,0.33-0.02,0.49-0.06c0.16-0.04,0.29-0.1,0.41-0.19c0.12-0.09,0.21-0.21,0.29-0.35
									C112.72,42.81,112.76,42.62,112.76,42.41z"/>
								<path class="st1" d="M114.37,44.37v-3.9H117v0.79h-1.72V42h1.62v0.75h-1.62v0.81h1.82v0.8H114.37z"/>
								<path class="st1" d="M117.72,44.37v-3.9h0.95v3.08h1.51v0.82H117.72z"/>
								<path class="st1" d="M124.84,41.67c0,0.23-0.04,0.42-0.13,0.57c-0.08,0.16-0.2,0.28-0.34,0.38
									c-0.14,0.09-0.31,0.17-0.5,0.21c-0.19,0.05-0.38,0.07-0.59,0.07h-0.47v1.47h-0.94v-3.9h1.44c0.21,0,0.41,0.02,0.6,0.06
									c0.19,0.04,0.35,0.11,0.49,0.2c0.14,0.09,0.25,0.22,0.33,0.37C124.8,41.26,124.84,41.45,124.84,41.67z M123.9,41.68
									c0-0.09-0.02-0.17-0.06-0.23c-0.04-0.06-0.09-0.11-0.15-0.14c-0.06-0.03-0.13-0.06-0.21-0.07
									c-0.08-0.01-0.16-0.02-0.25-0.02h-0.41v0.92h0.4c0.09,0,0.17-0.01,0.25-0.02c0.08-0.01,0.15-0.04,0.22-0.08
									c0.06-0.04,0.12-0.09,0.15-0.15C123.88,41.84,123.9,41.77,123.9,41.68z"/>
								<path class="st1" d="M128.61,43.54c-0.08,0.19-0.19,0.36-0.34,0.5c-0.15,0.14-0.32,0.25-0.53,0.32
									c-0.21,0.08-0.44,0.12-0.69,0.12c-0.26,0-0.49-0.04-0.7-0.12c-0.21-0.08-0.38-0.18-0.52-0.32c-0.14-0.14-0.25-0.3-0.33-0.5
									c-0.08-0.19-0.12-0.41-0.12-0.64v-2.43h0.94v2.35c0,0.11,0.01,0.21,0.04,0.3c0.03,0.09,0.07,0.18,0.13,0.26
									c0.06,0.08,0.13,0.13,0.23,0.18c0.1,0.04,0.21,0.07,0.34,0.07c0.13,0,0.25-0.02,0.34-0.07c0.09-0.05,0.17-0.1,0.23-0.18
									c0.06-0.08,0.1-0.16,0.13-0.26c0.03-0.1,0.04-0.2,0.04-0.3v-2.35h0.94v2.43C128.73,43.13,128.69,43.35,128.61,43.54z"/>
								<path class="st1" d="M129.49,44.37v-3.9h2.63v0.79h-1.72V42h1.62v0.75h-1.62v0.81h1.82v0.8H129.49z"/>
								<path class="st1" d="M135.89,43.23c0,0.21-0.04,0.39-0.13,0.54c-0.08,0.15-0.2,0.26-0.34,0.35
									c-0.14,0.09-0.3,0.15-0.48,0.19c-0.18,0.04-0.36,0.06-0.55,0.06h-1.56v-3.9h1.56c0.15,0,0.31,0.02,0.46,0.05
									c0.16,0.03,0.3,0.08,0.43,0.16c0.13,0.08,0.23,0.18,0.31,0.3c0.08,0.13,0.12,0.29,0.12,0.49c0,0.22-0.06,0.4-0.18,0.54
									c-0.12,0.14-0.27,0.24-0.46,0.3v0.01c0.11,0.02,0.21,0.05,0.31,0.1c0.1,0.05,0.18,0.11,0.25,0.19
									c0.07,0.08,0.13,0.17,0.17,0.27C135.87,42.99,135.89,43.1,135.89,43.23z M134.82,41.6c0-0.13-0.05-0.23-0.15-0.29
									c-0.1-0.06-0.25-0.09-0.45-0.09h-0.46v0.8h0.51c0.18,0,0.31-0.04,0.41-0.11C134.77,41.84,134.82,41.74,134.82,41.6z
									 M134.95,43.15c0-0.16-0.06-0.27-0.18-0.34c-0.12-0.06-0.28-0.09-0.49-0.09h-0.53v0.89h0.53c0.07,0,0.15-0.01,0.23-0.02
									c0.08-0.01,0.15-0.03,0.22-0.07c0.06-0.03,0.12-0.08,0.16-0.14C134.93,43.32,134.95,43.24,134.95,43.15z"/>
								<path class="st1" d="M136.52,44.37v-3.9h0.95v3.08h1.51v0.82H136.52z"/>
								<path class="st1" d="M143.34,42.4c0,0.31-0.05,0.59-0.16,0.84c-0.11,0.26-0.25,0.47-0.44,0.65
									c-0.19,0.18-0.42,0.32-0.68,0.42c-0.26,0.1-0.55,0.15-0.85,0.15c-0.31,0-0.59-0.05-0.85-0.15c-0.26-0.1-0.48-0.24-0.67-0.42
									c-0.19-0.18-0.34-0.4-0.44-0.65c-0.11-0.26-0.16-0.54-0.16-0.84c0-0.31,0.05-0.59,0.16-0.85c0.11-0.25,0.25-0.46,0.44-0.64
									c0.19-0.18,0.41-0.31,0.67-0.41c0.26-0.09,0.54-0.14,0.85-0.14c0.31,0,0.59,0.05,0.85,0.14c0.26,0.1,0.49,0.23,0.68,0.41
									c0.19,0.18,0.34,0.39,0.44,0.64C143.28,41.81,143.34,42.09,143.34,42.4z M142.32,42.4c0-0.17-0.03-0.33-0.08-0.47
									c-0.06-0.15-0.13-0.27-0.23-0.38c-0.1-0.1-0.22-0.19-0.35-0.25c-0.14-0.06-0.29-0.09-0.46-0.09c-0.17,0-0.32,0.03-0.45,0.09
									c-0.14,0.06-0.25,0.14-0.35,0.25c-0.1,0.11-0.18,0.23-0.23,0.38c-0.05,0.15-0.08,0.3-0.08,0.47c0,0.18,0.03,0.34,0.08,0.49
									c0.05,0.15,0.13,0.28,0.23,0.38c0.1,0.11,0.21,0.19,0.35,0.25c0.14,0.06,0.29,0.09,0.45,0.09c0.17,0,0.32-0.03,0.45-0.09
									c0.14-0.06,0.25-0.14,0.35-0.25c0.1-0.11,0.18-0.23,0.23-0.38C142.3,42.74,142.32,42.58,142.32,42.4z"/>
								<path class="st1" d="M144.48,41.96h-0.7l0.4-1.49h0.79L144.48,41.96z M145.63,41.96h-0.7l0.41-1.49h0.79L145.63,41.96z"/>
							</g>
						</g>
						<path class="st0" d="M152.37,36.06h18.3l3.22-3.06l3.08,2.91l17.54,0.02V4.3h-15.46V2.8h16.66v32.88v0.41v10.91h-43.35V36.06z
							 M163.96,40.18c-0.18-0.17-0.4-0.3-0.65-0.38c-0.25-0.09-0.49-0.13-0.72-0.13c-0.2,0-0.39,0.02-0.58,0.07
							c-0.19,0.05-0.37,0.13-0.52,0.23c-0.15,0.11-0.28,0.24-0.37,0.41c-0.09,0.16-0.14,0.36-0.14,0.59c0,0.19,0.03,0.35,0.09,0.48
							c0.06,0.13,0.14,0.24,0.24,0.33c0.1,0.09,0.21,0.17,0.34,0.23c0.13,0.06,0.26,0.11,0.39,0.15c0.14,0.04,0.26,0.08,0.37,0.12
							c0.11,0.04,0.2,0.08,0.27,0.12c0.07,0.04,0.13,0.1,0.17,0.15c0.04,0.06,0.06,0.12,0.06,0.2c0,0.08-0.02,0.15-0.05,0.21
							c-0.03,0.06-0.07,0.11-0.13,0.14c-0.05,0.04-0.12,0.06-0.19,0.08c-0.07,0.02-0.14,0.02-0.22,0.02c-0.17,0-0.33-0.04-0.5-0.13
							c-0.17-0.08-0.3-0.19-0.4-0.31l-0.66,0.67c0.18,0.19,0.42,0.34,0.7,0.44c0.28,0.1,0.57,0.16,0.87,0.16
							c0.2,0,0.4-0.03,0.6-0.08c0.19-0.06,0.36-0.14,0.51-0.25c0.15-0.11,0.27-0.26,0.36-0.43c0.09-0.17,0.13-0.38,0.13-0.62
							c0-0.21-0.04-0.38-0.12-0.52c-0.08-0.14-0.19-0.26-0.31-0.35c-0.13-0.09-0.27-0.17-0.42-0.23c-0.15-0.06-0.3-0.11-0.44-0.16
							c-0.1-0.03-0.19-0.06-0.27-0.09c-0.08-0.03-0.15-0.06-0.2-0.1c-0.06-0.04-0.1-0.08-0.13-0.12s-0.04-0.11-0.04-0.18
							c0-0.08,0.02-0.15,0.06-0.2s0.08-0.1,0.14-0.13c0.05-0.03,0.12-0.06,0.19-0.07c0.07-0.01,0.14-0.02,0.2-0.02
							c0.13,0,0.27,0.03,0.4,0.1c0.14,0.07,0.25,0.15,0.34,0.26L163.96,40.18z M167.52,43.94v-0.86h-1.94v-0.86h1.74v-0.81h-1.74
							v-0.79h1.84v-0.85h-2.81v4.16H167.52z M171.86,43.36l-0.7-0.66c-0.09,0.12-0.21,0.23-0.36,0.31
							c-0.15,0.08-0.32,0.12-0.53,0.12c-0.17,0-0.33-0.03-0.48-0.09c-0.15-0.06-0.27-0.15-0.38-0.26c-0.1-0.11-0.19-0.25-0.25-0.4
							c-0.06-0.16-0.09-0.33-0.09-0.52c0-0.18,0.03-0.35,0.09-0.51c0.06-0.15,0.14-0.29,0.25-0.4c0.11-0.11,0.23-0.2,0.38-0.27
							c0.15-0.06,0.31-0.1,0.49-0.1c0.16,0,0.32,0.03,0.47,0.09c0.15,0.06,0.28,0.16,0.37,0.29l0.69-0.68
							c-0.18-0.2-0.41-0.35-0.69-0.46c-0.29-0.1-0.58-0.16-0.87-0.16c-0.32,0-0.62,0.05-0.89,0.15c-0.28,0.1-0.52,0.25-0.72,0.44
							c-0.2,0.19-0.37,0.42-0.48,0.69c-0.12,0.27-0.17,0.57-0.17,0.91c0,0.33,0.06,0.62,0.17,0.89c0.11,0.27,0.27,0.5,0.47,0.7
							c0.2,0.2,0.44,0.35,0.71,0.45c0.27,0.11,0.57,0.16,0.89,0.16c0.35,0,0.67-0.06,0.94-0.19
							C171.45,43.74,171.68,43.57,171.86,43.36z M175.97,43.36l-0.7-0.66c-0.09,0.12-0.21,0.23-0.36,0.31
							c-0.15,0.08-0.33,0.12-0.53,0.12c-0.17,0-0.33-0.03-0.48-0.09c-0.15-0.06-0.27-0.15-0.38-0.26c-0.1-0.11-0.19-0.25-0.25-0.4
							c-0.06-0.16-0.09-0.33-0.09-0.52c0-0.18,0.03-0.35,0.09-0.51c0.06-0.15,0.14-0.29,0.25-0.4c0.11-0.11,0.23-0.2,0.38-0.27
							c0.15-0.06,0.31-0.1,0.49-0.1c0.16,0,0.32,0.03,0.47,0.09c0.15,0.06,0.28,0.16,0.37,0.29l0.69-0.68
							c-0.18-0.2-0.41-0.35-0.69-0.46c-0.28-0.1-0.58-0.16-0.87-0.16c-0.32,0-0.62,0.05-0.89,0.15c-0.27,0.1-0.52,0.25-0.72,0.44
							c-0.2,0.19-0.36,0.42-0.48,0.69c-0.12,0.27-0.17,0.57-0.17,0.91c0,0.33,0.06,0.62,0.17,0.89c0.11,0.27,0.27,0.5,0.47,0.7
							c0.2,0.2,0.44,0.35,0.71,0.45c0.27,0.11,0.57,0.16,0.89,0.16c0.35,0,0.67-0.06,0.94-0.19
							C175.56,43.74,175.79,43.57,175.97,43.36z M177.42,43.94v-4.16h-1.02v4.16H177.42z M182.47,40.94
							c-0.11-0.27-0.27-0.5-0.48-0.69c-0.2-0.19-0.44-0.33-0.72-0.44c-0.28-0.1-0.58-0.15-0.91-0.15c-0.33,0-0.63,0.05-0.91,0.15
							c-0.28,0.1-0.52,0.25-0.72,0.44c-0.2,0.19-0.36,0.42-0.48,0.69c-0.11,0.27-0.17,0.57-0.17,0.9c0,0.33,0.06,0.63,0.17,0.9
							c0.11,0.27,0.27,0.51,0.48,0.7c0.2,0.2,0.44,0.35,0.72,0.45c0.28,0.11,0.58,0.16,0.91,0.16c0.33,0,0.63-0.05,0.91-0.16
							c0.28-0.11,0.52-0.26,0.72-0.45c0.2-0.19,0.36-0.43,0.48-0.7c0.11-0.27,0.17-0.57,0.17-0.9
							C182.64,41.51,182.58,41.2,182.47,40.94z M181.47,42.36c-0.06,0.16-0.14,0.29-0.25,0.41c-0.11,0.11-0.23,0.2-0.38,0.27
							c-0.15,0.06-0.31,0.1-0.49,0.1c-0.18,0-0.34-0.03-0.48-0.1c-0.15-0.06-0.27-0.15-0.38-0.27c-0.1-0.11-0.19-0.25-0.24-0.41
							c-0.06-0.16-0.09-0.33-0.09-0.52c0-0.18,0.03-0.35,0.09-0.51c0.06-0.16,0.14-0.29,0.24-0.4c0.11-0.11,0.23-0.2,0.38-0.27
							c0.14-0.07,0.31-0.1,0.48-0.1c0.18,0,0.34,0.03,0.49,0.1c0.15,0.07,0.27,0.15,0.38,0.27c0.1,0.11,0.19,0.25,0.24,0.4
							c0.06,0.16,0.09,0.33,0.09,0.51C181.56,42.03,181.53,42.2,181.47,42.36z M181.42,38.6h-0.98l-0.61,0.85h0.73L181.42,38.6z
							 M187.11,43.94v-4.16h-0.98l0.02,2.72h-0.02l-1.68-2.72h-1.15v4.16h0.98l-0.02-2.72h0.02l1.68,2.72H187.11z"/>
					</g>
				</g>
			</g>
		</g>
	</g>
	<g>
		<path class="st1" d="M161.75,53.96h-0.96l-1.5-3.95h1.08l0.92,2.8h0.02l0.92-2.8h1.06L161.75,53.96z"/>
		<path class="st1" d="M163.61,53.96V50h2.67v0.81h-1.75v0.74h1.65v0.76h-1.65v0.82h1.85v0.82H163.61z"/>
		<path class="st1" d="M169.14,53.96l-0.86-1.57h-0.33v1.57h-0.94V50h1.52c0.76,0,1.52,0.29,1.52,1.2c0,0.53-0.31,0.91-0.83,1.07
			l1.04,1.69H169.14z M168.46,50.78h-0.51v0.92h0.46c0.31,0,0.7-0.08,0.7-0.48C169.11,50.85,168.75,50.78,168.46,50.78z"/>
		<path class="st1" d="M173.43,53.96l-0.31-0.78h-1.54l-0.29,0.78h-1.04l1.67-3.95h0.93l1.65,3.95H173.43z M172.37,51.06l-0.5,1.36
			h1L172.37,51.06z"/>
		<path class="st1" d="M176.68,54.07c-1.22,0-2.14-0.85-2.14-2.09c0-1.27,0.94-2.08,2.16-2.08c0.56,0,1.16,0.2,1.49,0.58l-0.65,0.65
			c-0.18-0.25-0.5-0.36-0.8-0.36c-0.67,0-1.14,0.51-1.14,1.21c0,0.72,0.47,1.21,1.13,1.21c0.38,0,0.67-0.17,0.84-0.4l0.67,0.63
			C177.88,53.81,177.35,54.07,176.68,54.07z"/>
		<path class="st1" d="M180.76,53.96l-0.86-1.57h-0.33v1.57h-0.94V50h1.52c0.76,0,1.52,0.29,1.52,1.2c0,0.53-0.31,0.91-0.83,1.07
			l1.04,1.69H180.76z M180.08,50.78h-0.51v0.92h0.46c0.31,0,0.7-0.08,0.7-0.48C180.72,50.85,180.37,50.78,180.08,50.78z"/>
		<path class="st1" d="M184.01,54.07c-1.04,0-1.7-0.65-1.7-1.6V50h0.96v2.38c0,0.42,0.21,0.82,0.75,0.82c0.54,0,0.75-0.39,0.75-0.82
			V50h0.96v2.46C185.73,53.42,185.05,54.07,184.01,54.07z"/>
		<path class="st1" d="M186.31,53.96v-0.83l1.89-2.32h-1.85V50h3.05v0.77l-1.94,2.36h1.98v0.83H186.31z"/>
	</g>
	<g>
		<path class="st1" d="M155.86,25.3l4.9-0.51c0.14,1.1,0.55,1.98,1.24,2.62c0.69,0.64,1.48,0.97,2.38,0.97
			c1.03,0,1.9-0.42,2.61-1.25s1.07-2.08,1.07-3.76c0-1.57-0.35-2.75-1.06-3.53s-1.62-1.18-2.76-1.18c-1.41,0-2.68,0.62-3.8,1.87
			l-3.99-0.58l2.52-13.3h13.01v4.59h-9.28l-0.77,4.34c1.1-0.55,2.22-0.82,3.36-0.82c2.18,0,4.03,0.79,5.55,2.37
			c1.52,1.58,2.28,3.63,2.28,6.16c0,2.1-0.61,3.98-1.84,5.63c-1.67,2.26-3.99,3.38-6.95,3.38c-2.37,0-4.3-0.63-5.79-1.9
			C157.05,29.15,156.15,27.44,155.86,25.3z"/>
		<path class="st1" d="M191.82,12.57l-4.76,0.52c-0.12-0.98-0.42-1.7-0.91-2.16s-1.13-0.7-1.91-0.7c-1.04,0-1.92,0.47-2.63,1.4
			s-1.17,2.87-1.36,5.81c1.23-1.44,2.75-2.16,4.57-2.16c2.05,0,3.81,0.78,5.28,2.34c1.46,1.56,2.2,3.57,2.2,6.03
			c0,2.62-0.77,4.71-2.31,6.29c-1.54,1.58-3.52,2.37-5.93,2.37c-2.59,0-4.72-1-6.39-3.01c-1.67-2-2.5-5.29-2.5-9.86
			c0-4.68,0.87-8.06,2.61-10.13c1.74-2.07,4-3.1,6.78-3.1c1.95,0,3.56,0.54,4.84,1.63S191.47,10.5,191.82,12.57z M180.67,23.26
			c0,1.59,0.37,2.82,1.1,3.69s1.58,1.3,2.52,1.3c0.91,0,1.67-0.35,2.28-1.06c0.61-0.71,0.91-1.87,0.91-3.49
			c0-1.66-0.33-2.88-0.98-3.65c-0.65-0.77-1.47-1.16-2.45-1.16c-0.95,0-1.75,0.37-2.4,1.11C181,20.73,180.67,21.82,180.67,23.26z"/>
	</g>
</g>
</svg>
